<?xml version="1.0" encoding="UTF-8"?>
<svg id="Layer_1" data-name="Layer 1" xmlns="http://www.w3.org/2000/svg" viewBox="0 0 1285.17 389.25">
  <defs>
    <style>
      .cls-1 {
        fill: #fff;
      }

      .cls-2 {
        fill: #f24404;
      }
    </style>
  </defs>
  <g>
    <path class="cls-2" d="m154.96,378.87l-.69-1.89c-.12-.34-.23-.62-.33-.87-.2-.5-.36-.9-.46-1.35-1.24-5.6-4.42-8.38-9.98-8.75-2.55-.17-5.16-.22-7.68-.27-1.36-.03-2.72-.05-4.08-.1-6.57-.21-12.1-2.68-16.44-7.35-2.67-2.87-5.18-5.97-7.6-8.96l-1.31-1.62c-2.39-2.94-4.76-5.94-7.06-8.83-.82-1.04-1.65-2.08-2.46-3.11-.34.36-.66.7-.96,1.01-2.21,2.35-3.33,3.53-4.82,3.53h-.02c-1.58-.01-2.82-1.36-5.52-4.31l-.78-.85c-9.04-9.83-14.13-20.78-15.12-32.54l-.97.62c-.41.27-.82.55-1.22.83-.92.64-1.86,1.3-2.91,1.79-4.8,2.25-5.91,1.86-8.44-2.93-5.47-10.36-8.29-22.33-8.89-37.67l-.03-.83c-.23-5.78-.46-11.75,0-17.6.88-11.01,4.21-20.54,9.9-28.33,1.24-1.7,1.49-3.05.88-4.82-.71-2.1-1.3-4.26-1.86-6.35-.29-1.06-.57-2.11-.87-3.16-2.9-10.09-1.52-18.49,4.23-25.67.66-.83,1.32-1.66,1.98-2.49,2-2.52,4.06-5.12,6.2-7.6.94-1.1,2.32-2.06,3.77-2.66,4.3-1.76,8.6-3.54,12.89-5.32,11.5-4.77,23.39-9.71,35.29-14.03,13.73-4.98,28.91-8.38,46.42-10.38,19.45-2.22,39.28-2.26,58.45-2.29h2.55c4.24,0,6.36,1.56,7.48,5.41l.79,2.73c.91,3.14,1.83,6.28,2.73,9.43.37,1.29.73,2.58,1.09,3.88.61,2.19,1.24,4.46,1.91,6.66,1.34,4.39,3.66,8,6.91,10.72,7.56,6.34,9.8,14.46,6.65,24.14-.97,2.98-1.89,6.05-2.78,9.01-.81,2.69-1.64,5.48-2.52,8.2-.81,2.52-.51,4.41.97,6.14h0c5.21,6.09,8.19,13.42,11.08,20.5.74,1.82,1.49,3.65,2.27,5.45,2.31,5.34,1.88,11.04,1.47,16.56-.09,1.15-.17,2.3-.23,3.45-.36,6.78-1.06,13.33-2.07,19.45-1.29,7.84-5.69,14.39-10.08,20.42-1.01,1.39-4.23,1.22-5.64.66-1.49-.58-2.76-1.57-3.98-2.51-.09-.07-.18-.14-.27-.21-.33,1.21-.64,2.42-.95,3.63-.96,3.7-1.95,7.53-3.33,11.16-3.29,8.67-7.33,14.89-12.72,19.59-2.73,2.38-4.68,3.27-6.54,2.98-1.88-.29-3.49-1.76-5.41-4.92-.14-.23-.27-.46-.45-.79-.3.54-.58,1.07-.86,1.58-1.14,2.11-2.23,4.1-3.38,6l-.73,1.21c-1.68,2.77-3.41,5.64-5.49,8.2-1.36,1.67-2.94,3.15-4.47,4.59-1.05.98-2.13,2-3.11,3.04-3.65,3.91-8.01,5.8-13.32,5.81-.14,0-.28,0-.42,0-1.03,0-2.08.04-3.1.09-1.77.08-3.61.15-5.43,0-6.62-.53-11.64,2.4-15.79,9.22-.21.35-.44.69-.73,1.15l-1.63,2.52Zm-57.46-45.54l.44.55c.98,1.24,1.97,2.49,2.97,3.75,2.29,2.89,4.66,5.89,7.04,8.81l1.32,1.62c2.4,2.97,4.89,6.03,7.51,8.86,3.96,4.26,9.03,6.52,15.04,6.71,1.35.04,2.7.07,4.05.09,2.55.05,5.18.1,7.78.27,6.4.43,10.37,3.9,11.79,10.32,0,.03.02.07.02.1.05-.09.11-.17.16-.26,4.58-7.54,10.2-10.77,17.66-10.18,1.7.14,3.39.06,5.18-.01,1.13-.05,2.29-.1,3.45-.09.05,0,.1,0,.15,0,4.73,0,8.61-1.69,11.87-5.17,1.03-1.1,2.13-2.14,3.21-3.14,1.48-1.39,3.02-2.83,4.29-4.39,1.99-2.45,3.69-5.26,5.34-7.97l.74-1.21c1.13-1.85,2.15-3.73,3.33-5.91.55-1.01,1.13-2.07,1.75-3.2l.88-1.58,1.56,2.85c.26.49.42.77.59,1.05,1.55,2.56,2.79,3.79,4,3.98,1.2.19,2.72-.59,4.92-2.51,5.13-4.47,9-10.44,12.16-18.79,1.34-3.53,2.27-7.13,3.26-10.95.44-1.69.88-3.39,1.35-5.08l.38-1.35,1.15.8c.5.35,1,.73,1.5,1.12,1.11.86,2.26,1.75,3.48,2.23,1.08.42,2.96.31,3.31,0,4.23-5.82,8.48-12.14,9.7-19.54,1-6.05,1.68-12.52,2.04-19.23.06-1.16.15-2.32.24-3.49.4-5.28.81-10.73-1.31-15.62-.79-1.81-1.53-3.65-2.28-5.49-2.83-6.94-5.76-14.11-10.75-19.96-1.95-2.29-2.38-4.84-1.35-8.05.87-2.71,1.7-5.48,2.51-8.17.89-2.97,1.81-6.05,2.79-9.06,2.91-8.95.94-16.15-6.03-21.99-3.55-2.98-6.09-6.9-7.54-11.67-.68-2.23-1.31-4.51-1.93-6.71-.36-1.29-.72-2.58-1.09-3.86-.9-3.14-1.81-6.28-2.73-9.42l-.79-2.73c-.86-2.97-2.26-3.98-5.53-3.98h-2.58c-19.12.04-38.89.07-58.23,2.28-17.35,1.99-32.39,5.35-45.97,10.27-11.86,4.3-23.73,9.23-35.21,14-4.3,1.78-8.6,3.57-12.91,5.33-1.17.48-2.27,1.25-3.01,2.11-2.11,2.45-4.16,5.04-6.15,7.54-.66.83-1.32,1.67-1.99,2.5-5.32,6.64-6.58,14.45-3.87,23.87.31,1.06.59,2.12.88,3.19.56,2.06,1.14,4.19,1.83,6.23.81,2.38.45,4.43-1.16,6.64-5.54,7.59-8.65,16.53-9.52,27.31-.46,5.73-.23,11.64,0,17.36l.03.83c.59,15.03,3.34,26.72,8.66,36.81q2.02,3.84,5.82,2.06c.9-.42,1.73-1,2.62-1.62.42-.3.85-.59,1.28-.87l3.15-2.02.43,1.17c.07.2.14.35.19.48.12.29.23.54.25.86.88,11.62,5.67,22.01,14.63,31.75l.78.86c2.01,2.2,3.35,3.65,4.06,3.66h0c.63,0,1.78-1.22,3.37-2.9.39-.42.82-.87,1.3-1.37.22-.23.46-.3.67-.36.09-.03.22-.06.41-.13l.66-.22Zm103.62-11.76l-.59-1.89c-.29-.92-.56-1.76-.82-2.54-.53-1.63-.99-3.04-1.36-4.49-.9-3.55-3.14-5.74-6.66-6.52-.99-.22-1.99-.44-2.98-.67-5.37-1.21-10.93-2.45-16.43-3.12-13.86-1.69-27.69-1.34-41.11,1.01-4.36.77-8.73,2.13-12.59,3.33-4.29,1.34-6.84,4.45-7.56,9.24-.11.7-.29,1.36-.51,2.13-.11.37-.22.78-.34,1.23l-.46,1.79-1.24-1.37c-2.53-2.79-3.31-5.57-2.43-8.76,1.97-7.16,6-11.75,12.34-14.04,7.62-2.76,16.01-4.36,26.37-5.03,14.2-.92,28.92.36,43.75,3.83,7.97,1.86,13.11,6.2,15.26,12.9.68,2.1.61,4.39.54,6.6-.02.56-.03,1.12-.04,1.67,0,.77-.51,1.35-1.09,2.02-.26.3-.57.66-.89,1.09l-1.17,1.6Zm-46.1-22.29c5.81,0,11.65.36,17.5,1.07,5.6.68,11.21,1.94,16.63,3.16l2.98.67c4.26.94,7.09,3.7,8.17,7.98.35,1.39.8,2.77,1.32,4.36.09.26.17.53.26.81.18-.21.34-.42.39-.52,0-.55.02-1.11.04-1.67.06-2.04.13-4.15-.45-5.93-1.96-6.06-6.47-9.85-13.82-11.56-14.64-3.42-29.16-4.69-43.16-3.78-10.17.66-18.38,2.23-25.82,4.92-5.68,2.05-9.31,6.21-11.09,12.69-.53,1.94-.29,3.65.81,5.38.12-.44.21-.83.27-1.22.85-5.61,3.85-9.26,8.94-10.85,3.91-1.22,8.35-2.61,12.84-3.4,7.95-1.4,16.04-2.1,24.19-2.1Zm56.71,15.04l1.49-3.5c11.8-27.79,8.24-52.58-10.88-75.79l-1.19-1.45,6.07-.59c17.8-1.73,27.07-13.26,25.42-31.62-.68-7.6-5.96-13.23-10.27-16.61-1.14-.89-2.11-3.16-1.62-4.54.53-1.5.15-2-1.34-2.83-4.14-2.31-8.67-2.97-14.2-3.24h-.24c-2.11-.12-4.3-.22-6.41-.13-1.28.06-2.19-.24-2.76-.91-.79-.91-.65-2.2-.48-3.09l.73-3.83c-.88.26-1.74.51-2.59.76-2.86.83-5.56,1.61-8.13,2.64-4.32,1.73-8.65,3.67-12.84,5.55-1.87.84-3.74,1.68-5.62,2.5-.2.09-.4.2-.61.31-.65.36-1.4.76-2.23.67-2.88-.35-5.33.44-7.73,2.49-.79.68-1.94.15-3.16-.42-.22-.1-.43-.2-.62-.28-.6-.25-1.18-.54-1.76-.83-.85-.42-1.66-.82-2.5-1.1-1.11-.37-2.28-.67-3.41-.96-1.36-.35-2.76-.72-4.12-1.2-3.41-1.21-6.8-2.46-10.19-3.71-4.16-1.53-8.46-3.12-12.72-4.61-1.16-.41-2.44-.55-3.91-.72-.19-.02-.38-.04-.58-.07l2.64,6.58-1.41.06c-.65.03-1.26.06-1.83.09-1.19.07-2.2.13-3.26.12-7.7-.06-13.4.94-18.54,3.18l-.11.05c-.94.41-1.91.83-2.23,1.08.18.38.9,1.24,1.6,2.07.22.26.33.49.47.77.07.14.15.3.26.51l.39.74-1.77,1.38c-.83.65-1.68,1.31-2.51,1.98-7.78,6.24-10.97,14.52-9.49,24.62,1.55,10.59,6.89,17.46,15.88,20.42,3.04,1,6.22,1.48,9.59,1.98,1.52.23,3.1.46,4.66.75l1.62.3-1.02,1.3c-.07.09-.14.19-.22.31-.24.35-.57.82-1.01,1.22-9.4,8.61-14.47,19.89-15.07,33.54-.27,6.22-.48,13.58.05,21,.21,2.95,1.03,5.96,1.81,8.88.39,1.44.8,2.93,1.13,4.42.16.72.22,1.44.27,2.13.02.3.05.6.08.9l.07.62-1.94,1.23-.57-.55c-.23-.23-.48-.44-.73-.66-.61-.53-1.25-1.08-1.72-1.8-5.46-8.43-8.05-17.12-7.91-26.58v-.17c.15-10.16.31-20.66,6.1-30.03,1.29-2.08,2.41-4.34,3.5-6.52.48-.96.96-1.92,1.46-2.88.21-.41.4-.82.68-1.43.03-.07.06-.14.1-.21-12.52-3.23-20.53-10.77-23.81-22.43-2.92-10.36-.66-20.08,7.32-31.35l-5.6-.36,1.7-1.58c.88-.82,1.68-1.61,2.45-2.35,1.55-1.52,3.02-2.95,4.63-4.16,6.09-4.58,13.41-7.51,22.38-8.96.57-.09,1.17-.42,1.81-.77.02-.01.04-.02.06-.03-.01-.02-.02-.04-.03-.06-.37-.67-.72-1.31-1.18-1.75-.51-.5-1.07-.96-1.66-1.44-.79-.65-1.61-1.32-2.38-2.14l-1.53-1.64,2.24-.04c10.77-.18,21.85,1.72,35.74,6.18l-2.29-4.26,1.67-1.41.58.26c.7.32,1.39.64,2.09.97,1.69.79,3.43,1.61,5.18,2.31.52.21,1.18.25,1.88.29.04,0,.08,0,.12,0,0-.06.02-.11.03-.17.13-.75.25-1.46.17-2.09-.13-1.07-.43-2.13-.75-3.25-.14-.49-.27-.98-.4-1.47l-.19-.75,2.34-1.29,8.62,15.43c.13-.36.25-.71.38-1.06.76-2.13,1.47-4.15,2.29-6.09,1.16-2.74,2.55-5.59,5.73-7.75l2.08-1.42-2.22,10.08,10.49-4.09,1.38,2.02-.45.57c-.18.23-.36.45-.55.68-.4.49-.79.96-1.09,1.45-.17.28-.31.6-.44.95.26.07.52.12.66.09,2.03-.54,4.09-1.15,6.09-1.73,2.24-.66,4.56-1.34,6.87-1.94,2.92-.76,6.05-1.52,9.19-1.89,4.61-.54,9.11-.69,13.77-.45l2.38.12-1.75,1.61c-.37.34-.74.67-1.11,1-.82.73-1.66,1.48-2.41,2.27-.65.68-1.26,1.42-1.81,2.11,1.33.37,2.66.72,3.95,1.07,4.14,1.1,8.05,2.14,11.83,3.71,3.1,1.29,5.9,3.29,8.61,5.22.96.69,1.93,1.38,2.9,2.03.83.56,1.44,1.88,1.3,2.83-.48,3.36.94,6.16,2.45,9.12.24.47.48.95.72,1.43,4.73,9.65,5.17,18.91,1.31,27.52h0c-4.15,9.25-10.74,15.19-19.59,17.66l-.48.13c-.37.1-.74.2-1.1.32-1.28.41-1.64.63-1.71.74-.04.18.19.81.7,1.85.82,1.67,1.66,3.33,2.49,4.99,2.25,4.48,4.59,9.1,6.56,13.81,6.64,15.81,4.63,31.6-6.15,48.27-1.19,1.84-2.44,3.22-4.06,4.46l-3.02,2.32Zm-6.68-79.11c17.49,22.01,21.43,45.43,11.98,71.39.03-.04.06-.09.09-.14,10.39-16.08,12.34-31.26,5.98-46.41-1.95-4.64-4.26-9.24-6.5-13.68-.84-1.67-1.68-3.33-2.5-5-.71-1.43-1.17-2.52-.75-3.52.42-.99,1.53-1.41,2.94-1.86.39-.12.79-.23,1.19-.34l.47-.13c8.25-2.3,14.4-7.87,18.3-16.55h0c3.61-8.05,3.18-16.74-1.28-25.83-.23-.47-.47-.94-.71-1.4-1.58-3.11-3.22-6.32-2.65-10.31.02-.21-.25-.77-.44-.89-.99-.67-1.97-1.37-2.95-2.07-2.62-1.87-5.32-3.8-8.21-5-3.66-1.52-7.5-2.54-11.58-3.62-1.77-.47-3.6-.96-5.44-1.49l-1.46-.43.97-1.17c.22-.26.45-.55.7-.86.63-.79,1.35-1.69,2.16-2.54.57-.6,1.18-1.17,1.78-1.71-3.69-.08-7.3.09-10.98.53-3.02.36-6.07,1.1-8.92,1.84-2.28.6-4.58,1.27-6.81,1.92-2,.59-4.07,1.19-6.13,1.74-.73.2-1.43,0-2.06-.19-.21-.06-.43-.12-.63-.16l-1.23-.22.48-1.15c.09-.21.17-.43.25-.64.21-.55.42-1.11.75-1.65.17-.28.36-.55.56-.81l-11.39,4.44,1.82-8.28c-1.29,1.49-2.08,3.18-2.81,4.92-.8,1.89-1.5,3.88-2.25,5.98-.35,1-.72,2.04-1.12,3.13l-.75,2.04-8.18-14.64c.06.3.11.61.15.92.12.92-.03,1.81-.18,2.67-.06.34-.12.68-.15,1.02l-.11,1.01-1-.12c-.32-.04-.64-.06-.97-.08-.83-.05-1.68-.1-2.5-.43-1.8-.72-3.57-1.55-5.29-2.35l-.45-.21,1.92,3.58-.82,1.97-.88-.29c-13.29-4.39-23.95-6.46-34.11-6.6.11.09.23.19.34.28.6.49,1.22,1,1.79,1.55.67.65,1.11,1.45,1.54,2.22.17.31.34.61.52.9l.61.96-1.03.48c-.31.14-.61.31-.91.47-.76.42-1.55.85-2.45.99-8.64,1.39-15.67,4.2-21.49,8.59-1.5,1.13-2.86,2.46-4.43,3.99-.27.26-.54.53-.82.8l4.65.3-1.1,1.48c-8.44,11.35-10.93,20.94-8.07,31.09,3.22,11.43,10.91,18.4,23.53,21.32l1.2.28-.52,1.12c-.24.52-.44.95-.6,1.31-.3.65-.5,1.09-.72,1.52-.49.94-.97,1.9-1.44,2.85-1.11,2.22-2.25,4.52-3.59,6.68-5.5,8.9-5.64,18.67-5.8,29.01v.17c-.14,9.04,2.34,17.37,7.58,25.46.27.42.67.79,1.11,1.17-.04-.53-.1-1.03-.2-1.51-.32-1.44-.72-2.91-1.11-4.33-.81-3-1.66-6.11-1.88-9.26-.54-7.52-.32-14.95-.05-21.23.62-14.18,5.9-25.92,15.68-34.89-.99-.16-1.98-.31-2.95-.45-3.31-.49-6.73-1-9.93-2.05-9.63-3.17-15.59-10.79-17.23-22.04-1.56-10.7,1.97-19.85,10.22-26.47.84-.67,1.69-1.34,2.53-1.99l.46-.36c-.04-.07-.07-.13-.08-.14-1.62-1.92-2.35-2.78-2.1-3.86.25-1.07,1.31-1.53,3.42-2.45l.12-.05c5.4-2.36,11.34-3.4,19.35-3.35,1.01.01,1.99-.05,3.14-.12.15,0,.29-.02.44-.02l-2.88-7.2,1.74.27c.77.12,1.5.21,2.21.29,1.53.17,2.97.34,4.34.82,4.27,1.49,8.58,3.08,12.75,4.62,3.39,1.25,6.77,2.5,10.17,3.71,1.28.45,2.64.81,3.95,1.15,1.16.3,2.36.61,3.54,1,.97.32,1.88.77,2.76,1.2.55.27,1.1.54,1.66.78.21.09.44.2.68.31.34.16.92.43,1.25.52,2.75-2.27,5.71-3.17,9.04-2.77.18.02.69-.25,1.02-.43.26-.14.51-.28.76-.39,1.87-.82,3.74-1.66,5.6-2.5,4.21-1.89,8.55-3.84,12.91-5.58,2.66-1.07,5.41-1.86,8.32-2.71,1.34-.39,2.72-.79,4.14-1.23l1.59-.49-1.34,7.09c-.19,1.01-.04,1.32.03,1.41.05.06.29.26,1.17.22,2.2-.09,4.44.02,6.59.12h.24c5.81.3,10.6,1,15.08,3.5,1.78.99,3.28,2.31,2.26,5.24-.14.39.36,1.82.97,2.31,6.62,5.2,10.44,11.43,11.03,18.01,1.73,19.33-8.44,31.96-27.22,33.79l-2.35.23Zm-76.54,34.84l-.56-.65c-.41-.47-.86-.93-1.31-1.38-1.03-1.05-2.1-2.13-2.79-3.46-4.02-7.79-2.33-14.12-.2-18.05,3.27-6.04,9.96-10.56,16.64-11.24,3.39-.34,7.79-.38,11.71,2.46,2.49,1.81,5.12,1.88,8.51.23,2.89-1.4,6.29-2.89,10.34-2.79h0c6.42.16,12.07,2.74,15.93,7.27,3.79,4.45,5.4,10.32,4.55,16.53-.51,3.74-2.25,7.08-5.02,9.67l-.43.41-2.38-.8.21-.89c.08-.35.15-.71.22-1.06.16-.83.33-1.69.65-2.52,2.19-5.7,2.17-10.24-.05-14.72-2.58-5.2-7.02-7.94-13.2-8.15-6.14-.2-10.6,1.96-13.28,6.45-.26.43-.56.8-.84,1.17-.12.16-.25.32-.37.48l-.75,1-.81-.94c-7.17-8.33-11.7-10.07-18.66-7.17-5.28,2.2-8.8,6.09-10.2,11.25-.99,3.66.59,6.9,2.27,10.33.68,1.4,1.39,2.85,1.91,4.34l.26.75-2.35,1.48Zm14.62-32.94c-.82,0-1.7.05-2.62.14-6.06.62-12.12,4.72-15.09,10.21-1.9,3.51-3.41,9.17.22,16.18.51,1,1.34,1.87,2.24,2.78-.31-.7-.65-1.39-.98-2.07-1.76-3.62-3.58-7.35-2.4-11.73,1.56-5.78,5.49-10.13,11.36-12.58,7.6-3.17,12.79-1.46,20.14,6.79.13-.17.25-.34.35-.5,3.08-5.16,8.14-7.68,15.06-7.42,6.97.23,11.99,3.35,14.93,9.25,2.46,4.96,2.5,10.15.13,16.33-.19.49-.32,1.02-.43,1.58,1.81-2.08,2.96-4.61,3.34-7.38.78-5.63-.68-10.95-4.09-14.96-3.48-4.09-8.61-6.42-14.45-6.56-3.57-.1-6.62,1.23-9.42,2.59-4.03,1.95-7.48,1.82-10.56-.41-2.09-1.52-4.53-2.24-7.71-2.24Zm28.3,26.1l-.91-.31c-.83-.28-1.67-.55-2.51-.82-1.96-.63-3.99-1.29-5.95-2.09-1.12-.46-1.92-1.23-2.32-2.22-.41-1.02-.36-2.18.15-3.34,1.91-4.35,5.69-7.12,10.37-7.6,3.47-.34,6.65,1.72,8.96,5.86,1.56,2.79,1.22,4.81.65,6.02-.81,1.73-2.56,2.89-5.06,3.36h0c-.86.16-1.72.25-2.56.34-.18.02-.35.04-.53.06l-.29.75Zm-.42-14.42c-.18,0-.36,0-.55.03-3.94.41-7.13,2.74-8.74,6.42-.29.66-.33,1.28-.13,1.79.19.48.62.87,1.23,1.12,1.88.77,3.88,1.41,5.8,2.04.54.17,1.09.35,1.63.53l.04-.09.6-.07c.39-.05.77-.09,1.16-.13.83-.09,1.62-.17,2.4-.32,1.84-.35,3.09-1.12,3.62-2.24.52-1.12.32-2.57-.59-4.19-1.04-1.86-3.22-4.87-6.46-4.87Zm-32.03,14.32l-.23-.81c-2.9-.2-6.73-.55-7.79-4.26-1.08-3.78,1.78-6.8,4.02-8.74,2.44-2.12,6.15-2.64,9.7-1.37,3.59,1.29,6.16,4.1,6.71,7.35.27,1.59-1.1,4.18-2.58,4.85h0c-2.04.92-4.24,1.49-6.36,2.04-.84.22-1.67.43-2.5.67l-.96.28Zm1.85-13.87c-1.74,0-3.35.54-4.54,1.57-2.9,2.52-3.99,4.64-3.4,6.68.65,2.28,2.88,2.6,6.22,2.83l1.18.07.07.25c.53-.14,1.06-.28,1.59-.42,2.14-.55,4.15-1.07,6.04-1.93.66-.3,1.55-1.98,1.43-2.69-.43-2.54-2.51-4.76-5.42-5.8-1.06-.38-2.14-.57-3.17-.57Zm-16.7-35.71c-6.05,0-11.35-1.41-16.28-4.26-2.21-1.28-4.62-2.24-7.18-3.25-1.21-.48-2.44-.96-3.68-1.5l-1.09-.47.65-1c.12-.31.4-.96,1.04-1.21h0c9.68-3.78,18.47-6.62,27.93-3.06,3.28,1.24,6.68,3.32,10.69,6.55,2.05,1.65,2.03,3.24,1.84,4.05-.35,1.48-1.78,2.58-3.92,3.02-3.56.74-6.88,1.12-10,1.12Zm-24.81-10.21c.7.29,1.4.56,2.09.83,2.63,1.04,5.11,2.02,7.45,3.38,7.02,4.07,14.92,5,24.87,2.92,1.31-.27,2.22-.86,2.38-1.53.14-.58-.28-1.32-1.15-2.02-3.84-3.09-7.07-5.08-10.14-6.24-8.48-3.19-16.59-.77-25.5,2.66Zm86.58,9.76c-3.38,0-6.77-.45-10.05-1.01-1.59-.27-3.48-1.78-4.22-3.36-.71-1.53,1.54-3.95,2.18-4.51,6.81-6,14.78-8.32,23.69-6.9,3.13.5,6.19,1.52,9.14,2.5,1.11.37,2.21.74,3.32,1.08.7.21,1.29.59,1.82.92.2.12.39.25.58.35l1.75.96-1.81.83c-1.79.82-3.54,1.66-5.26,2.5-3.93,1.89-7.63,3.68-11.56,5.11-3.13,1.13-6.36,1.55-9.59,1.55Zm-12.39-5.1c.5.96,1.77,1.97,2.68,2.12,7.11,1.21,12.99,1.59,18.62-.45,3.83-1.39,7.5-3.16,11.37-5.03,1.17-.57,2.35-1.13,3.55-1.7-.12-.05-.24-.1-.35-.14-1.12-.35-2.24-.72-3.36-1.09-2.88-.96-5.86-1.95-8.83-2.43-8.29-1.33-15.71.83-22.05,6.42-.8.71-1.54,1.86-1.63,2.28Zm-5.18-.85l-2.47-1.33.23-.78c.16-.54.28-1.12.4-1.73.29-1.42.59-2.89,1.47-4.05,6.44-8.55,14.46-13.35,23.82-14.25,7.1-.68,13.94.21,20.32,2.65,1.62.62,3.1,1.54,4.54,2.43.64.4,1.27.79,1.92,1.16l.76.43-1.21,2.96-2.97-.45c-1.64-.24-3.28-.49-4.91-.75-1.59-.26-3.17-.55-4.76-.85-3.22-.6-6.55-1.22-9.82-1.49-7.33-.6-13.7,2.34-20.64,9.54-1.37,1.43-2.83,2.81-4.23,4.14-.65.61-1.29,1.22-1.93,1.84l-.52.51Zm28.04-20.36c-1.45,0-2.92.07-4.39.21-8.9.86-16.23,5.26-22.41,13.46-.6.8-.85,1.99-1.11,3.25-.05.22-.09.45-.14.67.36-.35.73-.69,1.09-1.04,1.39-1.32,2.83-2.68,4.17-4.08,7.39-7.68,14.25-10.8,22.24-10.15,3.38.28,6.76.91,10.03,1.52,1.57.29,3.14.59,4.71.84h0c1.62.26,3.25.51,4.88.75l1.12.17c-.33-.2-.65-.4-.98-.6-1.42-.88-2.76-1.71-4.2-2.27-4.77-1.83-9.81-2.75-15.02-2.75Zm-53.13,20.14l-1.28-.58c-.29-.13-.61-.25-.92-.36-.81-.29-1.65-.6-2.32-1.22-1.4-1.29-2.77-2.65-4.09-3.97-1.87-1.86-3.8-3.78-5.82-5.49-4.57-3.88-10.24-5.26-16.86-4.11-2.69.47-5.41,1.06-8.04,1.63-1.88.41-3.77.82-5.66,1.19-1.1.22-2.22.31-3.3.39-.48.04-.96.08-1.45.13l-.68.07-1.19-2.34.62-.51c.25-.21.5-.44.74-.67.61-.57,1.23-1.16,2.03-1.55,9.07-4.37,18.27-5.78,27.35-4.18,4.15.73,8.05,3.45,11.48,5.85,2.27,1.58,4.22,3.62,6.11,5.59.72.75,1.44,1.51,2.18,2.23.73.72,1.45,1.5,1.53,2.46.08,1.01-.05,2-.17,2.95-.05.37-.09.74-.13,1.1l-.13,1.4Zm-26.89-18.14c5.24,0,9.86,1.67,13.76,4.98,2.08,1.77,4.04,3.72,5.93,5.6,1.31,1.3,2.66,2.65,4.04,3.92.34.32.88.53,1.45.74.11-.84.2-1.64.14-2.4-.02-.29-.71-.97-.94-1.19-.75-.74-1.49-1.51-2.22-2.28-1.82-1.9-3.7-3.86-5.81-5.34-3.27-2.28-6.97-4.86-10.68-5.52-8.66-1.52-17.45-.17-26.13,4.02-.48.23-.94.65-1.42,1.1.1,0,.21-.02.32-.03,1.07-.09,2.09-.17,3.08-.36,1.88-.37,3.75-.77,5.62-1.18,2.65-.57,5.4-1.17,8.12-1.64,1.63-.28,3.21-.42,4.74-.42Z"/>
    <path class="cls-2" d="m68.89,153.52c-.81,0-1.68-.36-2.31-1.69-2.59-5.43-5.19-10.86-7.78-16.29-2.83-5.92-5.66-11.83-8.48-17.75-.19-.39-.11-.75-.05-1.02.02-.08.04-.18.06-.31l.17-1.24,6.35,2.37c3.69,1.38,7.33,2.74,10.97,4.11,9.87,3.72,21.99,2.78,33.24-2.58,11.99-5.71,21.08-15.6,24.93-27.14,1.07-3.2,2.35-6.49,3.91-10.05.77-1.75,1.31-2.82,2.39-2.98,1.13-.17,2.02.88,3.14,2.2,4.21,4.97,8.36,9.77,12.34,14.25,4.77,5.38,11,8.82,15.9,11.22,7.27,3.56,14.46,2.41,23.02-.42,13.24-4.37,23.69-12.21,31.03-23.31.4-.61.8-1.15,1.21-1.66.28-.35.66-.43.96-.49.11-.02.26-.05.44-.1l1.13-.31.13,1.16c.03.29.07.58.11.86.09.63.18,1.28.19,1.94,0,3.39,0,6.77,0,10.16,0,7.22-.02,14.68.1,22.01.05,3.5-1.51,4.28-4.22,4.45-15.47.95-31.33,2.02-48.48,3.28-17.17,1.26-35.28,5.41-55.37,12.69-12.62,4.57-25.38,9.41-37.72,14.1l-5.62,2.13c-.41.15-1.01.38-1.65.38Zm-16.17-35.31c2.62,5.49,5.25,10.99,7.88,16.48,2.6,5.43,5.19,10.86,7.78,16.29.29.61.34.72,1.45.29l5.62-2.13c12.35-4.69,25.12-9.53,37.75-14.11,20.26-7.34,38.55-11.53,55.9-12.8,17.16-1.26,33.02-2.33,48.5-3.28,2.09-.13,2.38-.42,2.34-2.42-.12-7.35-.11-14.82-.1-22.05,0-3.39,0-6.77,0-10.16,0-.3-.03-.61-.06-.92-.14.2-.28.4-.43.62-7.6,11.48-18.39,19.59-32.07,24.1-7.81,2.58-16.18,4.4-24.53.31-5.06-2.48-11.51-6.04-16.51-11.69-3.99-4.49-8.15-9.3-12.37-14.28-.3-.36-.95-1.12-1.31-1.42-.19.27-.48.84-.85,1.7-1.54,3.51-2.8,6.74-3.85,9.88-4.03,12.06-13.49,22.38-25.97,28.31-11.74,5.59-24.43,6.55-34.81,2.64-3.63-1.37-7.27-2.73-10.96-4.11l-3.42-1.28Z"/>
    <g>
      <path class="cls-2" d="m155.09,387.24c-.07-.1-.12-.19-.14-.26-1.32-5.52-5.71-7.5-9.38-8.61-3.08-.93-6.13-1.8-9.36-2.72-1.44-.41-5.68-1.63-5.68-1.63v8.32c-11.06-6.12-21.11-12.93-25-26.05l-.28-.94-2.26.63-3.73,6.54c-.13-.08-.24-.15-.32-.23-8.85-8.68-15.87-16.98-21.48-25.38-4.28-6.42-9.51-13.81-15.79-20.02-9.31-9.2-14.88-20.82-17.03-35.54-.52-3.57-1.25-7.04-2.02-10.71-.35-1.67-.7-3.36-1.04-5.08l-.15-.77-.78-.04c-.13,0-.25,0-.38,0-2.79,0-4.87,1.52-7,3.24,0-.75.03-1.42.17-2.02l.74-3.26c2.42-10.68,4.92-21.72,9.94-31.7.86-1.7,1.91-3.36,2.93-4.97,1.01-1.59,2.05-3.23,2.93-4.95.67-1.31,1.76-3.88,1.49-6.35-.32-2.98-.92-5.96-1.51-8.83-.31-1.51-.61-3.01-.88-4.53-1.69-9.56.99-17.76,8.18-25.07.22-.22.73-.74.54-1.44-.04-.16-.14-.4-.38-.6-.49-1.66-.99-3.32-1.48-4.98-1.15-3.85-2.34-7.82-3.39-11.76-4.31-16.26-8.47-30.85-15.75-44.73-6.69-12.75-13.28-25.83-19.65-38.48l-.19-.37c-1.16-2.3-2.55-3.24-4.79-3.24-.29,0-.59.02-.91.05-.33.03-.65.05-.97.05-5.14,0-9.13-3.98-9.29-9.26-.08-2.51.88-4.92,2.68-6.78,1.84-1.89,4.39-2.98,7.01-2.98h.23c3.48.09,6.13,1.84,8.12,5.36,1.89,3.36,1.54,6.79-1.01,9.91-2.01,2.46-1.36,3.94.43,5.67,1.25,1.21,2.51,2.43,3.76,3.64,9.26,9,18.84,18.3,29.7,25.84,3.66,2.54,7.58,4.89,11.67,6.99,5.39,2.77,11.29,4.17,17.55,4.17,4.68,0,9.55-.74,14.88-2.27,9.05-2.59,15.63-9.13,18.53-18.42,2.44-7.81,4.28-15.92,6.06-23.77.56-2.48,1.12-4.96,1.71-7.43.2-.87-.32-1.88-1.65-3.2-.54-.54-1.14-1-1.73-1.45-.81-.63-1.58-1.22-2.1-1.93-3.04-4.19-2.48-9.13,1.43-12.57,1.78-1.56,4.1-2.42,6.53-2.42s4.62.84,6.27,2.36c3.77,3.47,4.21,9.01,1.02,12.87-2.27,2.75-2.17,5.1.31,7.63,2.3,2.35,4.58,4.73,6.85,7.1,4.28,4.47,8.7,9.09,13.23,13.45,5.26,5.06,11.83,8.61,19.54,10.57,2.91.74,5.76,1.11,8.45,1.11,6.12,0,11.65-1.84,16.9-5.64,8.32-6.01,14.78-14.31,20.35-26.13,3.06-6.5,5.59-13.36,8.04-20,1.04-2.82,2.12-5.74,3.22-8.59.49-1.27.96-2.55,1.44-3.83.85-2.28,1.72-4.65,2.69-6.91.9-2.11.64-3.65-.91-5.52-3.06-3.67-3.78-6.7-2.35-9.82,1.88-4.1,4.68-6.23,8.53-6.51.24-.02.47-.03.71-.03,5.21,0,9.47,4.35,9.5,9.71.01,2.43-.93,4.73-2.66,6.47-1.81,1.82-4.23,2.82-6.83,2.82-.14,0-.6-.01-.6-.01-.21,0-.44.02-.74.04-.18.01-.39.03-.65.04l-.88.05-.06.88c-.16,2.14-.34,4.28-.53,6.42-.4,4.62-.82,9.4-.94,14.11-.5,19.45.18,40.15,2.08,63.27.29,3.48.74,7,1.19,10.4.67,5.12,1.36,10.42,1.46,15.62.11,5.68,1.54,11.03,2.92,16.2.71,2.65,1.44,5.39,1.97,8.11,1.04,5.29,4.43,9.26,7.71,13.09l.42.49c7.97,9.33,10.28,20.79,7.27,36.05-.25,1.28-.65,2.52-1.06,3.83-.44,1.4-.9,2.84-1.17,4.33-.29,1.61-.24,3.95.86,5.28,6.7,8.06,9.69,17.96,12.6,27.52,1.22,4.03,2.48,8.19,4.01,12.18.8,2.09,1.34,4.36,1.86,6.55.16.66.31,1.31.47,1.96-.52-.38-1.07-.76-1.67-1.07-.16-.08-.32-.17-.5-.26-.84-.45-1.71-.92-2.49-.92-.3,0-.58.07-.82.2-1.36.77-1.73,2.98-1.82,3.63-.34,2.73-.47,5.44-.57,7.96-.47,12.75-5.22,23.57-14.5,33.07-4.68,4.79-9.06,10.01-13.29,15.07-1.14,1.36-2.27,2.72-3.42,4.07-1.9,2.25-3.44,4.72-4.56,6.62-5.31,8.99-12.25,17.56-21.22,26.19-.29.28-.61.54-.98.82l-3.58-7.55-.92,1.82c-.89,1.76-1.65,3.54-2.37,5.26-1.9,4.49-3.69,8.73-7.58,11.53-5.01,3.6-10.76,6.02-15.99,8.11v-8.77l-1.32.44c-1.8.6-3.59,1.18-5.37,1.76-4.71,1.52-9.17,2.96-13.59,4.76-1.63.66-2.71,2.27-3.76,3.83-.31.46-.62.93-.94,1.35-.42.55-.67,1.17-.94,1.87Zm-55.75-48.37c2.29,2.9,4.67,5.9,7.06,8.83l1.31,1.62c2.42,2.99,4.93,6.09,7.6,8.96,4.34,4.67,9.87,7.14,16.44,7.35,1.36.04,2.72.07,4.08.1,2.52.05,5.13.1,7.68.27,5.56.38,8.73,3.16,9.98,8.75.1.45.26.85.46,1.35.1.25.21.54.33.87l.69,1.89,1.63-2.52c.3-.45.52-.8.73-1.15,3.85-6.33,8.4-9.28,14.31-9.28.48,0,.98.02,1.49.06.69.05,1.43.08,2.25.08,1.06,0,2.11-.04,3.17-.09,1.03-.04,2.07-.09,3.1-.09h.42c5.32,0,9.68-1.9,13.33-5.8.98-1.05,2.06-2.06,3.11-3.04,1.53-1.44,3.12-2.92,4.47-4.59,2.08-2.56,3.81-5.43,5.49-8.2l.73-1.21c1.16-1.9,2.24-3.89,3.38-5.99.28-.52.57-1.04.86-1.59.18.33.31.56.45.79,1.49,2.46,3.38,4.97,6.07,4.97,1.66,0,3.48-.93,5.88-3.03,5.39-4.7,9.43-10.92,12.72-19.59,1.38-3.63,2.37-7.46,3.33-11.16.31-1.21.63-2.42.95-3.63.09.07.18.14.27.21,1.22.95,2.48,1.93,3.98,2.51.67.26,1.59.42,2.53.42,1.06,0,2.47-.19,3.12-1.08,4.39-6.03,8.79-12.58,10.08-20.42,1.01-6.12,1.7-12.67,2.07-19.45.06-1.14.15-2.29.23-3.45.42-5.52.85-11.22-1.47-16.56-.78-1.8-1.52-3.62-2.27-5.45-2.89-7.08-5.88-14.41-11.09-20.5-1.48-1.73-1.78-3.63-.97-6.14.88-2.73,1.71-5.51,2.52-8.2.89-2.96,1.81-6.03,2.78-9.01,3.15-9.68.92-17.8-6.65-24.14-3.25-2.72-5.58-6.33-6.91-10.72-.67-2.21-1.3-4.47-1.91-6.66-.36-1.29-.72-2.59-1.09-3.88-.9-3.14-1.81-6.28-2.73-9.41l-.8-2.75c-1.12-3.85-3.28-5.42-7.45-5.42h-2.58c-19.18.04-39.01.07-58.45,2.29-17.51,2-32.7,5.4-46.42,10.38-11.9,4.32-23.79,9.26-35.29,14.03-4.29,1.78-8.59,3.57-12.9,5.32-1.45.59-2.83,1.56-3.77,2.66-2.14,2.48-4.2,5.08-6.2,7.6-.66.83-1.32,1.66-1.98,2.49-5.75,7.18-7.14,15.58-4.23,25.67.3,1.05.59,2.11.87,3.16.57,2.09,1.15,4.25,1.86,6.35.6,1.77.35,3.13-.88,4.82-5.68,7.79-9.01,17.32-9.9,28.33-.47,5.85-.24,11.83,0,17.6l.03.83c.6,15.34,3.42,27.31,8.89,37.67,1.26,2.38,2.25,4.27,4.34,4.27,1.05,0,2.25-.47,4.1-1.33,1.05-.49,2-1.15,2.91-1.79.4-.28.81-.56,1.22-.83l.97-.63c.98,11.75,6.06,22.7,15.11,32.54l.78.85c2.71,2.96,3.94,4.31,5.53,4.31,1.5,0,2.61-1.18,4.82-3.53.3-.32.62-.65.96-1.01.82,1.03,1.64,2.07,2.46,3.11ZM50.32,116.47c-.02.12-.04.22-.06.31-.06.26-.14.62.05,1.02,2.83,5.92,5.66,11.84,8.49,17.76,2.59,5.43,5.19,10.85,7.78,16.28.53,1.12,1.31,1.68,2.31,1.68.46,0,.96-.11,1.65-.38l5.62-2.13c12.34-4.68,25.1-9.52,37.72-14.1,20.09-7.28,38.2-11.43,55.37-12.69,17.15-1.26,33.01-2.33,48.48-3.28,2.71-.17,4.28-.95,4.22-4.45-.12-7.33-.11-14.79-.1-22.01,0-3.39,0-6.78,0-10.16,0-.67-.09-1.31-.19-1.94-.04-.28-.08-.57-.11-.86l-.13-1.16-1.13.31c-.18.05-.32.08-.44.1-.3.06-.67.14-.96.49-.41.51-.8,1.05-1.21,1.66-7.35,11.1-17.79,18.94-31.03,23.31-3.94,1.3-8.6,2.63-13.3,2.63-3.5,0-6.68-.72-9.72-2.21-4.89-2.4-11.12-5.84-15.9-11.22-3.98-4.48-8.13-9.28-12.34-14.25-1.17-1.38-1.93-2.22-2.91-2.22-1.3,0-1.94,1.45-2.61,2.99-1.56,3.56-2.84,6.85-3.91,10.05-6.08,18.21-25.59,31.95-45.38,31.95-4.57,0-8.87-.75-12.8-2.23-3.64-1.37-7.27-2.73-10.97-4.11l-6.35-2.37-.17,1.24Z"/>
      <path class="cls-2" d="m239.09,3.05c4.74,0,8.47,3.83,8.5,8.71.01,2.16-.83,4.21-2.37,5.76-1.62,1.63-3.79,2.52-6.12,2.52-.13,0-.25,0-.38,0-.07,0-.15,0-.22,0-.23,0-.48.02-.81.04-.18.01-.38.03-.64.04l-1.75.1-.13,1.75c-.16,2.14-.35,4.31-.53,6.41-.4,4.63-.82,9.42-.94,14.17-.5,19.49.18,40.22,2.09,63.38.29,3.5.75,7.03,1.19,10.44.66,5.1,1.35,10.37,1.45,15.51.11,5.8,1.56,11.21,2.96,16.44.7,2.63,1.43,5.35,1.96,8.05,1.09,5.55,4.57,9.62,7.93,13.55l.42.49c7.76,9.08,10,20.27,7.05,35.21-.24,1.22-.63,2.43-1.03,3.72-.45,1.43-.92,2.9-1.2,4.46-.12.66-.62,4.05,1.07,6.09,6.57,7.91,9.4,17.27,12.41,27.17,1.23,4.04,2.49,8.22,4.03,12.25.73,1.91,1.22,3.92,1.72,6.03-.05-.03-.1-.06-.16-.08-.9-.49-1.93-1.04-2.97-1.04-.48,0-.91.11-1.31.33-1.72.97-2.2,3.39-2.32,4.38-.34,2.77-.48,5.51-.57,8.05-.46,12.49-5.11,23.1-14.22,32.41-4.71,4.82-9.1,10.06-13.35,15.13-1.13,1.35-2.27,2.71-3.41,4.06-1.95,2.3-3.51,4.82-4.66,6.76-5.25,8.89-12.12,17.37-20.99,25.92l-2.15-4.54-1.75-3.69-1.85,3.64c-.91,1.79-1.67,3.59-2.4,5.33-1.92,4.55-3.58,8.47-7.24,11.11-4.27,3.07-8.93,5.21-14.4,7.44v-8.68l-2.63.88c-1.8.6-3.58,1.18-5.35,1.75-4.73,1.53-9.21,2.98-13.67,4.78-1.91.77-3.14,2.59-4.22,4.2-.31.45-.59.88-.88,1.27-1.96-4.57-6.21-6.35-9.4-7.31-3.1-.94-6.18-1.81-9.43-2.74-1.42-.41-2.87-.82-4.34-1.24l-2.55-.74v7.95c-10.28-5.8-19.43-12.45-23.04-24.63l-.56-1.89-1.9.53-.91.25-.79.22-.41.71-1.29,2.26-1.63,2.85c-8.5-8.4-15.28-16.45-20.71-24.59-4.31-6.46-9.58-13.91-15.92-20.18-9.15-9.04-14.63-20.48-16.75-34.97-.53-3.6-1.26-7.08-2.03-10.77-.35-1.66-.7-3.35-1.04-5.07l-.3-1.54-1.56-.08c-.14,0-.28-.01-.43-.01-2.26,0-4.09.88-5.76,2.04.22-.95.43-1.91.65-2.86,2.41-10.62,4.89-21.6,9.86-31.47.83-1.66,1.83-3.22,2.89-4.88,1.02-1.61,2.08-3.27,2.98-5.03.72-1.41,1.89-4.18,1.59-6.92-.33-3.03-.93-6.03-1.52-8.93-.3-1.48-.61-3.01-.87-4.5-1.63-9.22.96-17.13,7.91-24.19.75-.76,1.01-1.57.79-2.4-.05-.2-.18-.54-.46-.87-.47-1.58-.94-3.16-1.41-4.74-1.15-3.84-2.34-7.81-3.38-11.73-4.33-16.32-8.5-30.96-15.83-44.94-6.69-12.74-13.27-25.82-19.64-38.46l-.16-.31c1.22,1.17,2.43,2.35,3.64,3.53,9.29,9.02,18.9,18.35,29.82,25.95,3.69,2.57,7.66,4.94,11.78,7.06,5.53,2.84,11.59,4.28,18.01,4.28,4.77,0,9.73-.76,15.16-2.31,9.38-2.69,16.21-9.46,19.21-19.08,2.45-7.84,4.3-15.97,6.08-23.84.56-2.48,1.13-4.96,1.71-7.43.38-1.61-.83-3.06-1.92-4.14-.59-.58-1.21-1.06-1.82-1.53-.75-.58-1.46-1.13-1.9-1.73-2.76-3.8-2.27-8.11,1.29-11.23,1.59-1.4,3.68-2.17,5.87-2.17,2.14,0,4.13.74,5.59,2.09,3.37,3.11,3.77,8.05.93,11.5-2.59,3.14-2.47,6.08.36,8.97,2.29,2.34,4.6,4.75,6.84,7.09,4.29,4.48,8.72,9.11,13.27,13.48,5.38,5.18,12.11,8.82,19.98,10.82,2.99.76,5.92,1.15,8.7,1.15,6.25,0,12.13-1.96,17.48-5.83,8.46-6.11,15.02-14.54,20.67-26.51,3.08-6.54,5.62-13.42,8.07-20.08,1.04-2.82,2.11-5.73,3.21-8.57.49-1.28.97-2.56,1.44-3.85.84-2.27,1.71-4.62,2.67-6.86,1.04-2.44.73-4.4-1.06-6.55-2.82-3.38-3.48-6-2.21-8.76,1.74-3.79,4.19-5.67,7.7-5.93.21-.02.42-.02.63-.02M80.6,122.95c-4.44,0-8.63-.73-12.44-2.16-3.65-1.37-7.3-2.74-11-4.12l-5.15-1.92-2.34-.87-.35,2.47c-.01.09-.03.17-.04.23-.07.31-.21.96.12,1.66,2.86,5.99,5.73,11.98,8.59,17.98,2.56,5.35,5.12,10.71,7.68,16.06.89,1.86,2.24,2.25,3.22,2.25.74,0,1.43-.22,2.01-.44l5.64-2.14c12.33-4.68,25.08-9.52,37.69-14.08,20-7.25,38.02-11.38,55.1-12.63,17.17-1.26,33.02-2.33,48.47-3.28,3.67-.22,5.22-1.86,5.16-5.46-.12-7.33-.11-14.79-.1-22,0-3.39,0-6.77,0-10.16,0-.74-.1-1.42-.2-2.08-.04-.27-.08-.55-.11-.83l-.26-2.32-2.25.62c-.15.04-.28.07-.37.09-.36.07-1.03.21-1.54.84-.42.53-.84,1.1-1.26,1.73-7.22,10.9-17.49,18.61-30.51,22.91-3.86,1.28-8.43,2.58-12.99,2.58-3.34,0-6.38-.69-9.28-2.11-5.11-2.5-10.96-5.77-15.59-10.98-3.98-4.48-8.12-9.27-12.32-14.23-1.17-1.38-2.18-2.57-3.67-2.57-1.95,0-2.79,1.91-3.53,3.59-1.58,3.59-2.87,6.9-3.95,10.13-2.99,8.96-9.31,17.05-17.8,22.78-8.1,5.47-17.56,8.48-26.63,8.48m-20.15,185.24c1.24,0,2.54-.5,4.52-1.43,1.13-.53,2.11-1.22,3.06-1.88.26-.18.52-.37.79-.54,1.33,11.36,6.44,21.95,15.21,31.49l.78.85c2.82,3.08,4.24,4.63,6.27,4.63,1.93,0,3.21-1.37,5.55-3.85.05-.06.11-.12.17-.18.58.73,1.16,1.46,1.74,2.2,2.3,2.9,4.67,5.91,7.07,8.85l1.32,1.62c2.43,3,4.95,6.11,7.64,9,4.53,4.87,10.3,7.45,17.14,7.67,1.36.04,2.72.07,4.07.1,2.52.05,5.12.1,7.65.27,5.12.35,7.92,2.81,9.07,7.97.12.52.29.98.5,1.5.1.24.21.52.32.85l1.37,3.78,2.18-3.38c.21-.32.39-.59.54-.83.3-.46.53-.81.75-1.17,3.65-6,7.93-8.8,13.45-8.8.46,0,.93.02,1.41.06.72.06,1.48.08,2.33.08,1.08,0,2.17-.05,3.22-.09,1.06-.04,2.05-.09,3.05-.09h.25s.17,0,.17,0c5.53,0,10.26-2.06,14.06-6.12.96-1.03,1.98-1.98,3.07-3,1.56-1.46,3.17-2.96,4.57-4.69,2.12-2.61,3.88-5.51,5.57-8.31l.73-1.21c1.17-1.92,2.25-3.92,3.41-6.04,0-.01.01-.03.02-.04,1.57,2.45,3.57,4.74,6.48,4.74,1.95,0,3.9-.98,6.54-3.27,5.52-4.81,9.65-11.16,13-19.99,1.4-3.68,2.39-7.54,3.36-11.26.19-.72.37-1.45.57-2.18.98.74,2.07,1.46,3.3,1.95.78.31,1.84.48,2.89.48,1.3,0,3.03-.26,3.92-1.49,4.46-6.13,8.93-12.79,10.26-20.85,1.02-6.16,1.71-12.74,2.08-19.56.06-1.13.15-2.29.23-3.42.42-5.64.86-11.47-1.55-17.03-.77-1.79-1.53-3.64-2.26-5.42-2.92-7.16-5.94-14.56-11.25-20.77-1.26-1.48-1.49-2.98-.78-5.19.88-2.74,1.71-5.53,2.52-8.23.89-2.96,1.8-6.01,2.77-8.98,3.29-10.11.95-18.59-6.96-25.22-3.14-2.63-5.3-5.99-6.6-10.25-.67-2.2-1.3-4.46-1.91-6.64-.36-1.3-.72-2.59-1.09-3.88-.88-3.06-1.77-6.13-2.66-9.19l-.87-2.98c-1.23-4.25-3.83-6.14-8.45-6.14h-2.55c-19.2.04-39.06.07-58.56,2.3-17.59,2.01-32.85,5.43-46.65,10.43-11.92,4.33-23.82,9.27-35.33,14.04-4.23,1.75-8.6,3.57-12.9,5.32-1.59.65-3.11,1.72-4.15,2.93-2.15,2.5-4.23,5.12-6.24,7.65-.65.82-1.31,1.65-1.97,2.47-5.97,7.46-7.42,16.15-4.41,26.58.3,1.04.58,2.09.87,3.14.57,2.11,1.16,4.28,1.88,6.41.49,1.46.3,2.48-.75,3.91-5.79,7.94-9.19,17.64-10.09,28.84-.47,5.91-.24,11.92-.01,17.73l.03.82c.6,15.49,3.46,27.6,9.01,38.1,1.36,2.58,2.53,4.8,5.23,4.8M10.69,52.78c.07,0,.14,0,.21,0,3.09.07,5.47,1.66,7.27,4.85,1.7,3.01,1.39,5.97-.91,8.79-1.51,1.85-1.69,3.34-1.24,4.59-.9-.77-2.12-1.31-3.85-1.31-.32,0-.66.02-1.01.05-.29.03-.58.04-.87.04-4.58,0-8.15-3.57-8.29-8.3-.07-2.24.78-4.39,2.4-6.05,1.65-1.7,3.94-2.68,6.29-2.68M239.09,1.05c-.26,0-.52,0-.78.03-4.63.34-7.53,3.09-9.37,7.09-1.93,4.19-.1,7.77,2.49,10.88,1.28,1.54,1.53,2.68.76,4.49-1.51,3.53-2.75,7.18-4.14,10.77-3.69,9.53-6.88,19.3-11.23,28.52-4.7,9.97-10.81,19.08-20.03,25.74-5.17,3.74-10.59,5.45-16.31,5.45-2.67,0-5.4-.37-8.2-1.08-7.22-1.83-13.74-5.18-19.09-10.32-6.89-6.63-13.37-13.69-20.06-20.53-2.04-2.08-2.27-3.85-.25-6.3,3.62-4.39,2.96-10.49-1.12-14.24-1.9-1.75-4.41-2.62-6.95-2.62-2.57,0-5.17.89-7.19,2.67-4.28,3.76-4.99,9.21-1.58,13.91,1.01,1.39,2.68,2.27,3.93,3.51.63.62,1.53,1.64,1.38,2.26-2.45,10.41-4.57,20.94-7.75,31.13-2.74,8.76-8.84,15.18-17.85,17.76-4.87,1.39-9.76,2.23-14.61,2.23-5.79,0-11.52-1.19-17.1-4.06-3.99-2.05-7.87-4.36-11.56-6.92-12.23-8.5-22.66-19.08-33.33-29.38-1.6-1.55-1.88-2.46-.35-4.32,2.7-3.3,3.31-7.13,1.11-11.04-1.97-3.49-4.83-5.77-8.97-5.87-.09,0-.17,0-.26,0-5.98,0-10.87,4.96-10.69,10.79.18,5.76,4.6,10.23,10.29,10.23.35,0,.7-.02,1.06-.05.29-.03.56-.04.82-.04,1.95,0,2.96.82,3.9,2.69,6.54,12.99,13.09,25.99,19.85,38.87,7.39,14.09,11.63,29.26,15.67,44.52,1.53,5.76,3.32,11.44,4.99,17.16.47.13.23.41-.02.67-7.12,7.24-10.24,15.79-8.45,25.94.78,4.44,1.89,8.83,2.38,13.29.2,1.87-.5,4.06-1.38,5.79-1.75,3.42-4.15,6.5-5.87,9.93-5.58,11.09-8.02,23.2-10.77,35.18-.29,1.26-.15,2.62-.23,4.37,2.77-2.2,4.92-4.37,8.03-4.37.11,0,.22,0,.33,0,1.07,5.44,2.29,10.56,3.05,15.74,2.03,13.87,7.1,26.01,17.32,36.11,5.96,5.89,10.99,12.86,15.67,19.87,6.26,9.38,13.62,17.7,21.61,25.53.37.36.9.56,1.41.86,1.39-2.44,2.7-4.73,4.02-7.03.3-.08.61-.17.91-.25,4.12,13.89,14.86,20.87,26.96,27.45v-8.68c4.78,1.38,9.28,2.63,13.75,3.97,4.11,1.24,7.59,3.23,8.7,7.88.14.6.73,1.09,1.4,2.04.62-1.45.86-2.5,1.45-3.28,1.31-1.74,2.49-4.13,4.28-4.86,6.1-2.47,12.43-4.32,18.91-6.49v8.86c6.23-2.48,12.22-4.92,17.57-8.77,5.66-4.07,7.02-10.78,10.26-17.15,1.23,2.6,2.17,4.58,3.24,6.84.8-.64,1.47-1.1,2.05-1.65,8.22-7.91,15.55-16.53,21.38-26.4,1.33-2.26,2.77-4.49,4.46-6.48,5.46-6.44,10.77-13.05,16.66-19.08,9.24-9.45,14.3-20.52,14.79-33.73.1-2.63.24-5.27.56-7.88.13-1.04.56-2.46,1.32-2.89.09-.05.2-.07.32-.07.67,0,1.75.68,2.54,1.08.85.43,1.61,1.06,2.41,1.6.33-.17.66-.34.99-.51-.87-3.27-1.46-6.65-2.66-9.79-5.15-13.5-7.11-28.35-16.77-39.99-.83-1-.9-3.03-.64-4.46.5-2.76,1.69-5.39,2.23-8.14,2.63-13.33,1.81-26-7.49-36.89-3.37-3.94-6.88-7.87-7.91-13.13-1.58-8.05-4.71-15.68-4.88-24.14-.17-8.71-1.93-17.37-2.65-26.08-1.73-21.02-2.63-42.07-2.08-63.16.18-6.83.96-13.64,1.47-20.49.65-.04,1.01-.08,1.33-.08.05,0,.09,0,.13,0,.15,0,.31,0,.46,0,5.8,0,10.53-4.58,10.49-10.29-.03-5.98-4.74-10.7-10.5-10.7h0ZM80.6,124.95c18.9,0,39.66-12.66,46.33-32.63,1.13-3.38,2.45-6.7,3.88-9.96.72-1.63,1.15-2.4,1.7-2.4.51,0,1.12.65,2.15,1.87,4.06,4.8,8.18,9.56,12.35,14.27,4.5,5.08,10.18,8.5,16.2,11.45,3.4,1.66,6.79,2.32,10.16,2.32,4.57,0,9.12-1.2,13.61-2.68,13.12-4.33,23.83-12.05,31.55-23.71.36-.54.74-1.08,1.15-1.58.09-.12.34-.11.88-.25.11.94.29,1.81.29,2.69.03,10.73-.07,21.46.1,32.19.04,2.64-.77,3.28-3.28,3.43-16.17.99-32.33,2.09-48.49,3.28-19.18,1.41-37.62,6.22-55.63,12.74-14.51,5.26-28.93,10.76-43.36,16.23-.5.19-.93.31-1.3.31-.58,0-1.02-.3-1.41-1.11-5.42-11.35-10.85-22.69-16.27-34.04-.06-.13.04-.35.1-.75,5.5,2.06,10.82,4.04,16.15,6.04,4.12,1.55,8.58,2.29,13.15,2.29h0Zm-20.15,181.24c-1.36,0-2.08-1.12-3.46-3.73-6.15-11.66-8.27-24.27-8.78-37.24-.24-6.1-.51-12.25-.03-18.32.81-10.05,3.68-19.56,9.71-27.82,1.35-1.85,1.77-3.53,1.02-5.73-1.05-3.11-1.82-6.31-2.72-9.47-2.56-8.91-1.94-17.28,4.05-24.77,2.7-3.37,5.34-6.79,8.16-10.06.88-1.02,2.14-1.87,3.39-2.38,16.02-6.53,31.9-13.44,48.15-19.34,14.89-5.4,30.44-8.53,46.2-10.33,20.24-2.32,40.56-2.25,60.89-2.29,0,0,.02,0,.03,0,3.84,0,5.54,1.43,6.49,4.7,1.18,4.05,2.36,8.1,3.52,12.16,1.01,3.52,1.94,7.06,3.01,10.55,1.34,4.41,3.66,8.21,7.23,11.2,7.41,6.21,9.31,13.93,6.34,23.07-1.86,5.71-3.46,11.5-5.3,17.22-.85,2.64-.68,4.94,1.16,7.1,6.41,7.51,9.37,16.86,13.2,25.69,2.69,6.2,1.5,13.02,1.15,19.55-.35,6.47-1,12.95-2.06,19.34-1.25,7.59-5.48,13.92-9.9,20-.33.46-1.3.67-2.31.67-.78,0-1.59-.12-2.16-.35-1.93-.76-3.54-2.32-5.19-3.47-1.53,5.44-2.68,10.93-4.64,16.11-2.74,7.23-6.47,13.99-12.44,19.19-2.11,1.84-3.75,2.78-5.22,2.78-1.83,0-3.38-1.47-5.22-4.49-.29-.47-.53-.96-1.3-2.35-1.94,3.5-3.42,6.38-5.1,9.14-1.93,3.18-3.82,6.43-6.15,9.3-2.24,2.75-5.11,4.98-7.54,7.58-3.45,3.69-7.6,5.49-12.6,5.49-.05,0-.1,0-.16,0-.09,0-.18,0-.27,0-2.09,0-4.19.18-6.27.18-.73,0-1.45-.02-2.17-.08-.53-.04-1.06-.06-1.57-.06-6.97,0-11.6,3.91-15.16,9.76-.32.53-.67,1.04-1.26,1.96-.36-.98-.62-1.53-.75-2.1-1.32-5.95-4.83-9.13-10.89-9.54-3.92-.26-7.86-.24-11.79-.37-6.19-.2-11.53-2.5-15.74-7.03-3.12-3.36-5.98-6.97-8.87-10.53-3.41-4.2-6.75-8.46-10.02-12.57-.5.17-.62.17-.67.23-2.88,3-4.11,4.58-5.39,4.58s-2.57-1.56-5.58-4.84c-8.36-9.09-13.93-19.71-14.89-32.36-.02-.25-.17-.49-.38-1.07-.77.5-1.44.92-2.1,1.35-1.33.86-2.59,1.89-4.01,2.56-1.7.8-2.81,1.24-3.67,1.24h0Z"/>
    </g>
    <g>
      <path class="cls-2" d="m81.42,102.41c-3.48,0-6.65-1.27-10.01-2.61l-.85-.34c-.08-.39-.1-1.15.03-1.48.76-1.84,1.63-3.69,2.47-5.48,1.52-3.25,3.1-6.6,4.13-10.1,2.36-7.94,1.18-16.04.03-23.88l-.25-1.73c-.6-4.18-1.44-8.39-2.24-12.45-.3-1.49-.59-2.98-.88-4.47-.09-.49-.19-1.01-.34-1.54,5.34,10.36,11.63,20.87,20.7,29.17,3.45,3.15,7.39,5.82,11.2,8.39.73.49,1.46.99,2.19,1.48,1.07.73,1.19,1,.94,2.06-2.94,12.62-12.72,21.39-25.54,22.88-.52.06-1.05.09-1.58.09Zm-9-66.2c-.72-.81-1.84-1.37-3.65-1.37-.22,0-.45,0-.7.03-.16.01-.31.02-.47.02-3.81,0-7.25-3.38-7.99-7.87-.74-4.45,1.62-8.69,5.87-10.56,1.05-.46,2.17-.7,3.34-.7,2.93,0,5.81,1.49,7.7,3.99,1.74,2.29,2.43,4.61,2.06,6.88-.45,2.78-2.54,5.51-6.04,7.89l-.72.49s.53,1.06.6,1.2Z"/>
      <path class="cls-2" d="m68.83,16.76c2.62,0,5.2,1.34,6.9,3.59,1.56,2.07,2.19,4.12,1.87,6.12-.41,2.5-2.35,5-5.61,7.23l-.78.54c-.67-.24-1.47-.39-2.42-.39-.24,0-.5,0-.77.03-.13,0-.27.01-.4.01-3.33,0-6.34-3.02-7.01-7.03-.66-3.99,1.46-7.8,5.29-9.49.92-.41,1.91-.61,2.94-.61m7.02,28.07c4.7,8.42,10.27,16.64,17.69,23.42,3.5,3.2,7.47,5.89,11.31,8.48.73.49,1.46.99,2.18,1.48.42.28.56.43.61.49,0,.06,0,.21-.07.51-2.84,12.2-12.29,20.68-24.68,22.12-.48.06-.97.08-1.47.08-3.29,0-6.37-1.24-9.64-2.54-.1-.04-.19-.08-.29-.12,0-.17,0-.32.02-.39.75-1.82,1.61-3.65,2.45-5.43,1.54-3.28,3.13-6.67,4.19-10.24,2.42-8.15,1.22-16.36.07-24.31l-.25-1.73c-.57-3.98-1.35-7.96-2.12-11.83m-7.02-30.07c-1.28,0-2.55.25-3.75.78-4.69,2.06-7.27,6.72-6.46,11.64.78,4.73,4.45,8.7,8.98,8.7.18,0,.36,0,.54-.02.22-.02.43-.02.63-.02,3.1,0,3.63,1.8,4.1,4.23,1.08,5.62,2.3,11.21,3.11,16.87,1.2,8.37,2.71,16.89.25,25.18-1.59,5.34-4.42,10.3-6.56,15.48-.32.77-.17,2.51.21,2.67,3.73,1.47,7.44,3.15,11.54,3.15.56,0,1.12-.03,1.7-.1,13.29-1.55,23.35-10.57,26.39-23.65.36-1.56-.04-2.21-1.35-3.11-4.54-3.1-9.24-6.1-13.28-9.79-9.55-8.74-15.93-19.83-21.78-31.42,6.95-4.74,8.44-10.62,4.22-16.2-2.13-2.82-5.32-4.38-8.49-4.38h0Z"/>
    </g>
    <g>
      <path class="cls-2" d="m179.04,86.24c-4.03-.11-7.94-1.66-12.29-4.88-3.46-2.57-6.79-5.48-10-8.31-1.51-1.33-3.02-2.65-4.55-3.95-.84-.71-.97-1.12-.16-2.25,7.56-10.59,11.58-22.44,11.93-35.22.07-2.31.32-4.61.77-6.83.56-2.77-.31-4.22-3-4.98-4.89-1.39-7.45-4.67-7.4-9.47.04-4.69,3.34-8.57,7.84-9.24.52-.08,1.04-.12,1.56-.12,4.32,0,7.96,2.61,9.29,6.65,1.45,4.43-.62,9.31-4.71,11.1-3.36,1.47-3.59,3.5-2.9,6.1.93,3.54,1.81,7.17,2.65,10.67,1.51,6.27,3.08,12.76,5.04,19.03,3.94,12.54,11.74,20.9,23.19,24.87l-.2.13c-5.28,3.44-10.27,6.7-16.56,6.7,0,0-.33,0-.5,0Z"/>
      <path class="cls-2" d="m163.75,2c3.88,0,7.15,2.34,8.34,5.97,1.3,3.95-.53,8.28-4.16,9.87-1.52.67-2.57,1.47-3.18,2.49-.6-.59-1.47-1.1-2.72-1.46-4.41-1.26-6.72-4.2-6.68-8.5.04-4.19,2.98-7.67,6.99-8.26.47-.07.95-.1,1.42-.1m1.48,26.12c.65,2.55,1.26,5.13,1.87,7.63,1.52,6.29,3.08,12.8,5.06,19.09,3.82,12.16,11.19,20.5,21.94,24.81-4.63,2.99-9.13,5.59-14.56,5.59-.16,0-.31,0-.47,0-3.82-.1-7.54-1.59-11.72-4.69-3.43-2.54-6.74-5.45-9.94-8.25-1.49-1.31-3.03-2.66-4.57-3.96-.19-.16-.28-.27-.33-.33.03-.09.12-.27.33-.57,7.68-10.76,11.76-22.79,12.12-35.77.03-1.19.12-2.37.26-3.54m-1.48-28.12c-.56,0-1.13.04-1.71.13-4.97.73-8.65,5.05-8.7,10.22-.05,5.1,2.71,8.9,8.13,10.44,2.32.66,2.72,1.68,2.29,3.83-.46,2.29-.72,4.66-.79,7-.36,12.78-4.36,24.31-11.75,34.67-1.05,1.47-.98,2.48.33,3.59,4.86,4.12,9.5,8.51,14.61,12.3,3.73,2.76,7.91,4.94,12.85,5.08.18,0,.35,0,.53,0,7.18,0,12.64-3.98,18.56-7.81-.59-.48-.77-.73-1-.81-12.01-4-19.36-12.69-23.03-24.38-3.06-9.73-5.08-19.78-7.68-29.65-.66-2.5-.25-3.8,2.33-4.93,4.73-2.07,6.83-7.54,5.26-12.32-1.47-4.48-5.56-7.34-10.24-7.34h0Z"/>
    </g>
    <g>
      <path class="cls-2" d="m217.03,306.6c9.45-25.96,5.51-49.37-11.98-71.39l2.35-.23c18.78-1.83,28.95-14.46,27.22-33.79-.59-6.58-4.4-12.81-11.03-18.01-.62-.48-1.11-1.92-.97-2.31,1.03-2.93-.48-4.25-2.26-5.24-4.48-2.5-9.27-3.2-15.08-3.49h-.24c-1.58-.09-3.21-.17-4.83-.17-.59,0-1.17.01-1.76.04h-.2c-.48,0-.85-.08-.96-.23-.07-.09-.22-.4-.03-1.4l1.34-7.09-1.59.49c-1.42.44-2.8.84-4.14,1.23-2.91.84-5.66,1.64-8.32,2.71-4.36,1.75-8.71,3.7-12.91,5.58-1.87.84-3.73,1.67-5.6,2.5-.25.11-.51.25-.76.39-.35.19-.79.44-1.01.44-.53-.06-1.05-.1-1.55-.1-2.72,0-5.18.94-7.51,2.86-.32-.09-.91-.36-1.25-.52-.24-.11-.48-.22-.68-.31-.56-.24-1.11-.51-1.66-.78-.88-.43-1.79-.88-2.76-1.2-1.17-.39-2.37-.7-3.54-1-1.31-.34-2.67-.69-3.95-1.15-3.4-1.21-6.78-2.46-10.17-3.71-4.17-1.54-8.48-3.13-12.75-4.62-1.37-.48-2.82-.64-4.34-.82-.71-.08-1.45-.17-2.21-.29l-1.74-.27,2.88,7.2c-.15,0-.3.02-.44.02-1.1.06-2.06.12-3,.12h-.62c-7.73,0-13.55,1.03-18.86,3.35l-.11.05c-2.11.92-3.17,1.38-3.42,2.45-.25,1.08.47,1.94,2.06,3.82.03.04.07.11.11.18l-.46.36c-.84.65-1.69,1.32-2.53,1.99-8.25,6.62-11.79,15.77-10.22,26.47,1.64,11.24,7.6,18.86,17.23,22.04,3.2,1.05,6.62,1.56,9.93,2.05.97.14,1.96.29,2.95.45-9.78,8.98-15.06,20.72-15.68,34.89-.28,6.28-.49,13.71.05,21.23.22,3.15,1.07,6.25,1.88,9.26.39,1.42.78,2.89,1.11,4.33.11.48.16.99.2,1.51-.44-.38-.84-.76-1.11-1.17-5.24-8.09-7.72-16.42-7.58-25.46v-.17c.16-10.34.3-20.1,5.8-29.01,1.33-2.16,2.48-4.46,3.59-6.68.48-.95.95-1.91,1.44-2.85.22-.43.43-.87.72-1.52.16-.36,1.12-2.42,1.12-2.42l-1.2-.28c-12.61-2.91-20.31-9.89-23.53-21.32-2.86-10.15-.37-19.74,8.07-31.09l1.1-1.48-4.65-.3c.28-.27.55-.54.82-.8,1.57-1.54,2.93-2.86,4.43-3.99,5.83-4.38,12.86-7.19,21.49-8.59.91-.15,1.69-.58,2.45-.99.3-.17.6-.33.91-.47l1.03-.48-.61-.96c-.18-.29-.35-.6-.52-.9-.43-.77-.87-1.57-1.54-2.22-.57-.56-1.19-1.06-1.79-1.55-.11-.09-.23-.19-.34-.28,10.19.15,20.77,2.2,34.11,6.6l.88.29.82-1.97-1.92-3.58.45.21c1.71.81,3.49,1.64,5.29,2.35.82.33,1.68.38,2.5.43.32.02.65.04.97.08l1,.12.11-1.01c.04-.34.1-.68.15-1.02.14-.86.29-1.75.18-2.67-.04-.31-.09-.61-.15-.92l8.18,14.64.75-2.04c.4-1.09.77-2.13,1.12-3.13.75-2.1,1.45-4.09,2.25-5.98.74-1.74,1.52-3.43,2.81-4.92l-1.82,8.28,11.39-4.44c-.19.26-.38.53-.56.81-.33.54-.54,1.1-.75,1.65-.08.21-.16.43-.25.64l-.48,1.15,1.23.22c.21.04.42.1.63.16.43.12.93.27,1.43.27.22,0,.43-.03.62-.08,2.06-.55,4.13-1.16,6.13-1.74,2.23-.65,4.53-1.33,6.81-1.92,2.85-.75,5.9-1.49,8.92-1.84,3.12-.37,6.14-.55,9.23-.55.58,0,1.16,0,1.75.02-.61.55-1.21,1.11-1.78,1.71-.81.85-1.53,1.74-2.16,2.54-.25.31-.48.6-.7.86l-.97,1.17,1.46.43c1.84.54,3.67,1.02,5.44,1.49,4.07,1.08,7.92,2.11,11.58,3.62,2.89,1.2,5.59,3.13,8.21,5,.98.7,1.96,1.4,2.95,2.07.19.12.46.68.44.89-.57,3.98,1.07,7.2,2.65,10.31.24.47.48.93.71,1.4,4.46,9.09,4.89,17.78,1.28,25.83-3.9,8.68-10.05,14.25-18.3,16.55l-.47.13c-.4.11-.8.21-1.19.34-1.41.45-2.52.87-2.94,1.86-.42,1,.04,2.09.75,3.52.82,1.67,1.66,3.34,2.5,5,2.24,4.44,4.55,9.04,6.5,13.68,6.36,15.15,4.41,30.33-5.98,46.41-.03.05-.06.09-.09.14Z"/>
      <path class="cls-2" d="m204.67,162.63s-.02.03-.04.04c-.84.88-1.57,1.8-2.22,2.6-.24.3-.47.59-.68.84l-1.95,2.34,2.93.85c1.85.54,3.69,1.03,5.47,1.5,1.15.31,2.29.61,3.41.92-1.97-.3-4.04-.47-6.25-.58h-.23c-1.6-.09-3.25-.17-4.89-.17-.64,0-1.22.01-1.8.04-.06,0-.11,0-.16,0-.03,0-.05,0-.07,0,.01-.11.03-.26.07-.44.21-1.1.42-2.2.66-3.48l.37-1.98.43-2.29c1.66-.12,3.3-.19,4.97-.21m-98.54,0c9.23.45,18.99,2.5,30.99,6.46l1.76.58.71-1.71.2-.49.08-.19.37-.88-.45-.84-.27-.51c1.01.46,2.03.91,3.07,1.32.97.39,1.95.44,2.81.5.3.02.61.03.9.07l2.01.25.22-2.01c.04-.32.09-.64.14-.96l4.45,7.97.84,1.5,2.12,3.8,1.5-4.09c.4-1.1.77-2.14,1.13-3.14.53-1.48,1.03-2.91,1.56-4.28l-.65,2.93,3.48-1.36,7.11-2.77c-.02.06-.05.12-.07.18-.08.2-.15.41-.24.61l-.96,2.3,2.45.44c.14.03.33.08.54.14.47.14,1.06.3,1.71.3.31,0,.6-.04.88-.11,2.07-.55,4.14-1.16,6.15-1.75,2.22-.65,4.52-1.32,6.78-1.92,2.46-.64,5.07-1.28,7.66-1.67-.87.26-1.72.51-2.56.75-2.93.85-5.7,1.65-8.41,2.74-4.38,1.75-8.74,3.71-12.96,5.61-1.86.83-3.72,1.67-5.58,2.49-.31.13-.59.29-.84.43-.18.1-.43.24-.58.3-.5-.06-1.01-.08-1.49-.08-2.78,0-5.31.89-7.69,2.73-.22-.1-.47-.21-.65-.29-.25-.12-.5-.23-.72-.32-.52-.22-1.05-.48-1.6-.75-.91-.45-1.85-.91-2.89-1.26-1.2-.4-2.42-.71-3.6-1.02-1.35-.35-2.63-.68-3.87-1.12-3.39-1.21-6.83-2.48-10.16-3.7-4.17-1.54-8.49-3.13-12.77-4.62-1.48-.52-2.97-.69-4.56-.87-.7-.08-1.43-.16-2.17-.28l-3.48-.55,1.31,3.27.54,1.35,1.17,2.92c-.71.04-1.36.06-2,.06h-.13s-.5,0-.5,0c-6.6,0-12.01.79-16.78,2.46,3.52-1.42,7.4-2.46,11.69-3.15,1.08-.17,1.98-.67,2.77-1.1.3-.16.58-.32.85-.44l2.07-.95-1.21-1.93c-.17-.27-.33-.56-.49-.85-.44-.8-.94-1.7-1.71-2.45,0,0-.02-.02-.03-.03m116.15,13.09c1.8,1.03,3.54,2.28,5.36,3.57.94.67,1.91,1.36,2.88,2.02.03.04.05.1.07.15-.55,4.22,1.14,7.53,2.77,10.74.24.46.47.92.7,1.39,4.38,8.93,4.8,17.1,1.27,24.98-3.77,8.4-9.71,13.78-17.66,16l-.48.13c-.41.11-.81.22-1.21.35-1.6.51-2.97,1.04-3.56,2.42-.64,1.5.11,3.01.77,4.36.82,1.67,1.66,3.34,2.5,5.01,2.23,4.43,4.54,9.01,6.48,13.62,5.21,12.4,4.71,24.83-1.56,37.8,5.52-22.2.95-43.05-13.67-62.21l.55-.05c19.39-1.89,29.91-14.92,28.12-34.88-.62-6.86-4.56-13.33-11.4-18.7-.24-.21-.58-.95-.61-1.31.92-2.76-.17-4.41-1.32-5.37m-136.04.77c-.3.34-.51.73-.63,1.22-.32,1.39.37,2.42,1.74,4.06-.73.57-1.47,1.15-2.21,1.74-8.54,6.85-12.2,16.32-10.59,27.39,1.7,11.64,7.89,19.54,17.91,22.84,3.28,1.08,6.75,1.6,10.1,2.1.31.05.62.09.93.14-9.04,8.97-13.92,20.45-14.52,34.17-.28,6.31-.49,13.78.05,21.34.23,3.24,1.09,6.4,1.91,9.45.09.33.18.66.27,1-3.94-7.02-5.81-14.26-5.69-22.03v-.17c.15-10.2.3-19.83,5.65-28.5,1.36-2.2,2.51-4.51,3.63-6.76.47-.95.95-1.9,1.43-2.83.24-.46.45-.93.74-1.57.16-.36.35-.78.6-1.3l1.04-2.24-2.4-.56c-12.22-2.82-19.68-9.57-22.79-20.61-2.77-9.82-.33-19.15,7.91-30.23l2.2-2.96-3.68-.23-.57-.04c1.22-1.19,2.34-2.24,3.54-3.14,1.09-.82,2.23-1.59,3.41-2.3m60.27-20.25c-.26.15-.53.29-.79.44.41,1.61.96,3.2,1.16,4.84.14,1.12-.2,2.3-.33,3.45-1.08-.13-2.24-.05-3.22-.44-2.48-.99-4.88-2.18-7.31-3.3-.19.16-.38.32-.57.48.86,1.6,1.72,3.21,2.58,4.81-.09.23-.19.45-.28.68-11.59-3.83-23.35-6.66-35.61-6.66-.46,0-.92,0-1.39.01,1.27,1.37,2.76,2.33,4.01,3.55.81.79,1.28,1.94,1.9,2.94-1.03.48-2.02,1.21-3.1,1.39-7.97,1.29-15.43,3.88-21.94,8.77-2.32,1.74-4.3,3.94-6.99,6.45,2.27.14,3.57.23,5.1.32-7.25,9.75-11.62,19.91-8.23,31.96,3.44,12.2,11.9,19.16,24.26,22.02-.67,1.45-.96,2.13-1.3,2.79-1.64,3.17-3.12,6.44-4.99,9.46-5.68,9.19-5.8,19.35-5.95,29.69-.14,9.63,2.63,18.12,7.75,26.02.58.89,1.53,1.53,2.31,2.29.25-.16.5-.32.75-.47-.11-.97-.12-1.97-.33-2.92-1-4.48-2.64-8.91-2.96-13.44-.5-7.01-.36-14.08-.05-21.11.59-13.41,5.36-25.04,15.39-34.24.49-.45.84-1.06,1.11-1.4-4.91-.9-9.83-1.26-14.38-2.76-10.05-3.31-15.09-11.2-16.56-21.23-1.49-10.18,1.64-18.95,9.86-25.55,1.21-.97,2.44-1.91,3.63-2.85-.32-.59-.41-.87-.58-1.07-2.7-3.2-2.69-3.16,1.07-4.8,5.9-2.58,12.11-3.27,18.46-3.27.16,0,.32,0,.49,0,.05,0,.09,0,.14,0,1.48,0,2.98-.13,4.9-.21-.99-2.48-1.78-4.43-2.75-6.87,2.39.38,4.5.4,6.38,1.06,7.67,2.68,15.26,5.6,22.91,8.32,2.45.87,5.04,1.34,7.51,2.16,1.5.49,2.88,1.34,4.34,1.95.76.32,1.89.94,2.47.94.11,0,.21-.02.27-.08,2.13-1.83,4.42-2.81,7.09-2.81.46,0,.93.03,1.41.09.04,0,.09,0,.14,0,.69,0,1.46-.59,2.17-.91,6.15-2.71,12.25-5.57,18.48-8.07,3.84-1.54,7.9-2.52,12.38-3.91-.42,2.2-.72,3.83-1.03,5.45-.33,1.73,0,2.82,1.97,2.82.08,0,.16,0,.25,0,.57-.02,1.14-.03,1.72-.03,1.67,0,3.35.09,5.03.17,5.07.25,10.08.82,14.64,3.36,1.64.92,2.57,1.84,1.8,4.04-.32.91.45,2.75,1.3,3.42,5.71,4.48,10.02,10.34,10.65,17.31,1.72,19.16-8.4,30.96-26.32,32.71-1.07.1-2.13.21-4.2.41,19.51,23.67,22.79,49.14,11.03,76.82,1.72-1.32,2.86-2.71,3.83-4.21,9.56-14.8,13.15-30.45,6.06-47.34-2.68-6.39-5.97-12.52-9.03-18.74-1.31-2.66-1.18-3.1,1.6-3.99.53-.17,1.08-.31,1.62-.46,9.14-2.55,15.18-8.72,18.94-17.1,4.03-8.99,2.96-18-1.3-26.68-1.74-3.54-3.87-6.89-3.26-11.13.08-.58-.37-1.53-.87-1.86-3.72-2.5-7.27-5.47-11.34-7.16-5.35-2.22-11.13-3.41-17.12-5.16.77-.92,1.72-2.2,2.81-3.34,1.12-1.17,2.37-2.21,3.57-3.31-1.44-.07-2.86-.11-4.25-.11-3.19,0-6.28.19-9.35.55-3.05.36-6.08,1.09-9.06,1.87-4.34,1.14-8.61,2.51-12.95,3.67-.12.03-.24.04-.37.04-.59,0-1.27-.3-1.89-.41.3-.72.53-1.5.93-2.15.49-.79,1.13-1.49,1.7-2.22-.17-.25-.34-.51-.52-.76-3.53,1.38-7.07,2.76-11.49,4.48.79-3.59,1.38-6.26,2.08-9.45-2.92,1.99-4.24,4.62-5.37,7.31-1.18,2.8-2.13,5.71-3.39,9.16-3.24-5.79-6.22-11.14-9.21-16.48h0Z"/>
    </g>
    <g>
      <path class="cls-2" d="m201.61,316.52c-.52-1.6-.97-2.97-1.32-4.36-1.08-4.28-3.91-7.04-8.17-7.98l-2.98-.67c-5.42-1.22-11.03-2.48-16.63-3.16-5.84-.71-11.74-1.07-17.52-1.07-8.11,0-16.24.71-24.17,2.1-4.49.79-8.92,2.17-12.84,3.4-5.09,1.59-8.09,5.24-8.94,10.85-.06.39-.15.78-.27,1.22-1.09-1.72-1.34-3.44-.81-5.38,1.78-6.49,5.41-10.64,11.09-12.69,7.44-2.69,15.65-4.26,25.82-4.92,2.95-.19,5.96-.29,8.94-.29,11.16,0,22.67,1.37,34.23,4.07,7.34,1.71,11.86,5.5,13.82,11.56.57,1.77.51,3.89.45,5.93-.02.57-.03,1.15-.04,1.71-.03.06-.2.26-.39.49-.09-.28-.18-.55-.26-.81Z"/>
      <path class="cls-2" d="m153.82,294.57c11.08,0,22.52,1.36,34,4.04,6.97,1.63,11.25,5.19,13.09,10.89.26.81.38,1.7.42,2.64-.02-.08-.04-.16-.06-.24-1.18-4.67-4.27-7.68-8.92-8.71-.99-.22-1.98-.44-2.98-.66-5.44-1.22-11.07-2.49-16.73-3.17-5.88-.71-11.82-1.08-17.65-1.08-8.17,0-16.36.71-24.34,2.12-4.56.8-9.03,2.2-12.96,3.43-4.44,1.39-7.48,4.36-8.92,8.66.04-.24.09-.49.16-.75,1.69-6.15,5.11-10.08,10.47-12.02,7.35-2.66,15.47-4.2,25.55-4.86,2.93-.19,5.92-.29,8.87-.29m0-2c-3,0-6,.1-9,.29-8.86.58-17.65,1.92-26.1,4.98-6.39,2.31-9.97,7.02-11.71,13.37-.77,2.81-.11,5.28,2.2,7.83.35-1.36.68-2.3.83-3.26.76-5.02,3.4-8.53,8.25-10.05,4.18-1.31,8.41-2.61,12.71-3.37,7.97-1.4,15.98-2.08,24-2.08,5.8,0,11.6.36,17.4,1.06,6.56.8,13.04,2.37,19.51,3.81,3.84.85,6.41,3.28,7.42,7.25.54,2.12,1.28,4.18,2.16,6.98.93-1.27,1.78-1.9,1.79-2.53.02-2.66.34-5.5-.45-7.95-2.25-6.99-7.61-10.61-14.54-12.23-11.37-2.66-22.86-4.1-34.45-4.1h0Z"/>
    </g>
    <g>
      <path class="cls-2" d="m127.87,266.42c-.89-.91-1.72-1.78-2.24-2.78-3.62-7.01-2.12-12.67-.22-16.18,2.97-5.49,9.03-9.59,15.09-10.21.97-.1,1.84-.15,2.66-.15,3.13,0,5.57.71,7.67,2.24,1.64,1.19,3.41,1.79,5.28,1.79,1.64,0,3.37-.45,5.28-1.38,3.3-1.6,5.97-2.59,9.08-2.59h.34c5.84.15,10.97,2.48,14.45,6.57,3.41,4.01,4.86,9.32,4.09,14.96-.38,2.77-1.53,5.29-3.34,7.38.12-.56.24-1.08.43-1.58,2.37-6.18,2.33-11.37-.13-16.33-2.93-5.91-7.96-9.02-14.93-9.25-.29,0-.58-.01-.87-.01-6.48,0-11.25,2.5-14.2,7.44-.1.17-.22.34-.35.5-5.22-5.85-9.24-8.26-13.7-8.26-1.96,0-4.07.48-6.44,1.47-5.87,2.45-9.8,6.79-11.36,12.58-1.18,4.38.64,8.12,2.4,11.73.33.68.67,1.37.98,2.07Z"/>
      <path class="cls-2" d="m148.14,238.98c.75.31,1.45.7,2.11,1.18,1.81,1.31,3.79,1.98,5.87,1.98.88,0,1.77-.12,2.7-.35-1.12.96-2.1,2.1-2.96,3.42-2.79-3-5.28-5.02-7.71-6.23m-4.98-2.87c-.91,0-1.83.06-2.76.15-10.86,1.11-23.18,13.28-15.66,27.84.91,1.76,2.62,3.11,3.96,4.65.32-.2.63-.4.95-.6-1.76-5.01-5.72-9.65-4.2-15.27,1.52-5.63,5.43-9.68,10.78-11.91,2.2-.92,4.17-1.39,6.06-1.39,4.53,0,8.52,2.76,13.74,8.83.4-.53.83-1.02,1.16-1.56,3.07-5.14,7.96-6.95,13.34-6.95.28,0,.55,0,.83.01,6.09.2,11.12,2.76,14.06,8.7,2.61,5.26,2.09,10.33.09,15.53-.42,1.1-.56,2.3-.83,3.45.32.11.63.21.95.32,2.61-2.43,4.23-5.55,4.72-9.08,1.71-12.44-7.04-22.36-19.5-22.66-.12,0-.24,0-.36,0-3.52,0-6.51,1.23-9.52,2.69-1.64.79-3.25,1.28-4.84,1.28s-3.14-.48-4.69-1.6c-2.54-1.84-5.35-2.43-8.26-2.43h0Z"/>
    </g>
    <g>
      <path class="cls-2" d="m124.15,211.53c-5.66,0-10.66-1.31-15.3-4-2.34-1.36-4.82-2.34-7.45-3.38-.69-.27-1.39-.55-2.09-.83,5.79-2.23,11.47-4.16,17.18-4.16,2.92,0,5.64.49,8.32,1.5,3.07,1.16,6.3,3.14,10.14,6.24.87.7,1.29,1.44,1.15,2.02-.16.67-1.08,1.26-2.38,1.53-3.48.73-6.6,1.08-9.57,1.08h0Z"/>
      <path class="cls-2" d="m116.5,200.17c2.8,0,5.41.47,7.96,1.43,2.97,1.12,6.11,3.05,9.87,6.08.68.55.81.94.8,1.01-.02.08-.4.53-1.62.79-3.41.71-6.47,1.06-9.36,1.06-5.48,0-10.32-1.26-14.8-3.86-2.31-1.34-4.73-2.31-7.28-3.32,4.97-1.83,9.63-3.18,14.42-3.18m0-2c-6.33,0-12.47,2.24-18.54,4.61-.33.13-.49.7-.57.82,3.87,1.67,7.63,2.87,10.96,4.8,5.12,2.97,10.4,4.13,15.8,4.13,3.21,0,6.47-.41,9.77-1.1,3.41-.71,4.32-3.17,1.66-5.31-3.16-2.54-6.66-4.98-10.42-6.39-2.93-1.1-5.82-1.56-8.67-1.56h0Z"/>
    </g>
    <g>
      <path class="cls-2" d="m185.91,211.09c-3.43,0-6.84-.5-9.72-.99-.92-.16-2.19-1.17-2.68-2.12.09-.42.83-1.58,1.63-2.28,5.12-4.51,10.98-6.8,17.43-6.8,1.5,0,3.06.13,4.62.38,2.97.47,5.95,1.47,8.83,2.43,1.12.37,2.24.75,3.36,1.09.12.04.23.08.35.14-1.2.56-2.38,1.13-3.55,1.7-3.88,1.87-7.54,3.64-11.37,5.03-2.67.97-5.58,1.44-8.9,1.44h0Z"/>
      <path class="cls-2" d="m192.57,199.89c1.45,0,2.95.12,4.46.36,2.89.46,5.69,1.4,8.67,2.39.45.15.9.3,1.36.45-.44.21-.88.42-1.31.63-3.85,1.86-7.49,3.61-11.28,4.98-2.56.93-5.36,1.38-8.56,1.38s-6.71-.49-9.55-.97c-.5-.09-1.27-.65-1.72-1.23.24-.42.71-1.04,1.16-1.44,4.93-4.35,10.57-6.55,16.77-6.55m0-2c-6.67,0-12.78,2.36-18.09,7.05-.96.85-2.25,2.66-1.93,3.34.57,1.24,2.14,2.57,3.48,2.8,3.27.56,6.59,1,9.89,1s6.23-.4,9.24-1.5c5.62-2.04,10.94-4.91,16.75-7.57-.67-.37-1.4-.93-2.22-1.19-4.09-1.26-8.14-2.88-12.33-3.55-1.62-.26-3.22-.39-4.78-.39h0Z"/>
    </g>
    <g>
      <path class="cls-2" d="m168.45,203.69c.26-1.26.5-2.45,1.11-3.25,6.18-8.2,13.51-12.61,22.41-13.46,1.47-.14,2.96-.21,4.4-.21,5.2,0,10.26.92,15.01,2.75,1.44.55,2.78,1.38,4.2,2.27.33.2.65.4.98.6l-1.12-.17c-1.63-.24-3.26-.48-4.88-.75-1.57-.26-3.14-.55-4.71-.84-3.27-.61-6.65-1.24-10.03-1.52-.66-.05-1.32-.08-1.96-.08-9.35,0-16.05,5.84-20.28,10.23-1.34,1.39-2.78,2.76-4.17,4.08-.36.35-.73.69-1.09,1.04.05-.23.09-.45.14-.67Z"/>
      <path class="cls-2" d="m196.37,187.77c5.08,0,10.01.9,14.66,2.68.11.04.22.09.33.13-.21-.03-.43-.07-.64-.1-1.56-.25-3.15-.55-4.69-.84-3.29-.61-6.7-1.25-10.13-1.53-.68-.06-1.37-.08-2.04-.08-9.73,0-16.65,6.01-21,10.53-.8.83-1.63,1.65-2.47,2.46,5.99-7.94,13.09-12.21,21.68-13.04,1.44-.14,2.89-.21,4.31-.21m0-2c-1.49,0-2.99.07-4.5.22-9.84.95-17.31,6.15-23.11,13.86-1.08,1.43-1.17,3.62-1.71,5.46.37.2.74.4,1.11.6,2.05-1.98,4.16-3.9,6.14-5.96,5.46-5.66,11.62-9.92,19.56-9.92.62,0,1.24.03,1.88.08,4.92.4,9.77,1.56,14.66,2.35,2.36.38,4.73.72,7.09,1.08.19-.47.39-.95.58-1.42-2.1-1.19-4.09-2.67-6.32-3.53-4.97-1.9-10.13-2.81-15.37-2.81h0Z"/>
    </g>
    <g>
      <path class="cls-2" d="m141.51,204.01c-.58-.21-1.11-.43-1.46-.74-1.37-1.26-2.73-2.61-4.04-3.92-1.89-1.89-3.85-3.83-5.93-5.6-3.89-3.31-8.53-4.98-13.78-4.98-1.52,0-3.1.14-4.72.42-2.73.47-5.47,1.07-8.12,1.64-1.87.41-3.74.81-5.62,1.18-.99.19-2.01.28-3.08.36-.11,0-.21.02-.32.03.48-.45.94-.86,1.42-1.1,6.35-3.07,12.83-4.62,19.24-4.62,2.3,0,4.62.2,6.9.6,3.71.65,7.42,3.24,10.68,5.52,2.11,1.47,3.99,3.43,5.81,5.33.74.77,1.47,1.54,2.22,2.28.23.22.91.9.94,1.19.06.76-.03,1.56-.14,2.4Z"/>
      <path class="cls-2" d="m115.11,187.68c2.24,0,4.5.2,6.72.59,3.5.62,7.1,3.13,10.29,5.35,2.03,1.41,3.79,3.26,5.66,5.21.73.76,1.48,1.54,2.24,2.3.13.13.51.5.65.71,0,.2,0,.41,0,.62-1.33-1.23-2.66-2.55-3.94-3.82-1.91-1.9-3.88-3.86-5.99-5.65-4.08-3.46-8.93-5.22-14.43-5.22-1.57,0-3.22.15-4.89.44-2.75.48-5.5,1.07-8.17,1.65-.98.21-1.98.43-2.98.64,4.93-1.87,9.9-2.81,14.83-2.81m0-2c-6.75,0-13.37,1.68-19.67,4.72-.97.47-1.72,1.38-2.57,2.09.17.34.34.67.51,1.01,1.56-.16,3.13-.21,4.66-.51,4.58-.9,9.12-2.02,13.72-2.82,1.54-.27,3.06-.41,4.55-.41,4.77,0,9.24,1.44,13.13,4.74,3.48,2.96,6.57,6.39,9.94,9.49.77.71,1.97.95,2.97,1.41.12-1.3.4-2.6.3-3.88-.05-.64-.71-1.31-1.23-1.83-2.67-2.63-5.12-5.6-8.16-7.72-3.4-2.37-7.16-4.99-11.08-5.68-2.37-.42-4.73-.62-7.07-.62h0Z"/>
    </g>
    <g>
      <path class="cls-2" d="m168.62,260.18c-1.93-.62-3.92-1.26-5.8-2.04-.61-.25-1.03-.64-1.23-1.12-.21-.51-.16-1.13.13-1.79,1.61-3.67,4.8-6.01,8.74-6.42.19-.02.37-.03.55-.03,3.25,0,5.44,3.05,6.45,4.87.91,1.63,1.11,3.08.59,4.19-.53,1.12-1.78,1.9-3.62,2.24-.78.15-1.57.23-2.4.32-.39.04-.77.08-1.16.13l-.6.07-.04.09c-.54-.18-1.08-.35-1.63-.53Z"/>
      <path class="cls-2" d="m171.01,249.79c2.74,0,4.67,2.73,5.58,4.36.73,1.31.93,2.48.56,3.28-.38.81-1.41,1.4-2.89,1.68-.74.14-1.51.22-2.32.3-.39.04-.79.08-1.18.13l-.6.07c-.41-.13-.81-.26-1.22-.4-2-.64-3.89-1.25-5.73-2.01-.25-.1-.57-.28-.68-.57-.1-.25-.06-.61.12-1.01,1.49-3.38,4.3-5.45,7.93-5.82.15-.02.3-.02.45-.02m0-2c-.22,0-.43.01-.66.03-4.18.43-7.73,2.86-9.56,7.01-.8,1.81-.17,3.49,1.64,4.24,2.74,1.12,5.59,1.94,8.4,2.89.05-.14.11-.28.16-.42,1.21-.15,2.43-.23,3.62-.45,4.4-.83,5.91-3.98,3.72-7.91-1.64-2.93-4.12-5.39-7.33-5.39h0Z"/>
    </g>
    <g>
      <path class="cls-2" d="m140.28,260.4l-1.18-.07c-3.33-.23-5.57-.55-6.22-2.83-.58-2.04.5-4.16,3.4-6.68,1.18-1.03,2.75-1.57,4.53-1.57,3.62,0,7.93,2.44,8.6,6.37.12.71-.78,2.39-1.43,2.69-1.89.85-3.9,1.38-6.04,1.93-.53.14-1.06.27-1.59.42l-.07-.25Z"/>
      <path class="cls-2" d="m140.82,250.24c3.2,0,7.01,2.1,7.61,5.5-.01.42-.54,1.42-.89,1.66-1.8.81-3.76,1.32-5.85,1.86-.22.06-.44.11-.67.17l-1.39-.08h-.1s-.17-.02-.17-.02h-.2c-3.4-.25-4.89-.59-5.32-2.12-.46-1.62.52-3.42,3.1-5.65,1.26-1.09,2.8-1.32,3.87-1.32m0-2c-1.9,0-3.74.56-5.18,1.81-2.29,1.98-4.59,4.63-3.71,7.71.91,3.2,4.37,3.36,7.31,3.57.09,0,.19.01.28.02.05.18.1.35.15.53,2.93-.84,5.98-1.42,8.73-2.66,1.06-.48,2.2-2.61,2.01-3.77-.73-4.32-5.29-7.21-9.59-7.21h0Z"/>
    </g>
  </g>
  <g>
    <path class="cls-1" d="m1012.04,134.23c-1.14-13.46-4.69-26.62-7.76-39.72-1.84-7.86-5.42-14.96-10.77-20.59-8.16-8.6-20.41-8.33-26.85,1.36-3.72,5.6-7.05,11.88-9.26,18.45-5.7,16.92-7.87,34.86-9.31,52.84-1.98,24.8-2.74,49.65-1.36,74.55,1.15,20.78,2.73,41.46,7.42,61.67,2.6,11.22,6.33,21.71,13.43,30.21,6.92,8.28,15.52,9.2,23.59,2.48,4.81-4.01,8.64-9.12,10.6-15.51,3.03-9.86,6.02-19.84,7.96-30.04,4.79-25.23,6.35-50.97,5.76-76.69-.34-14.78-2.19-44.29-3.44-59.01Z"/>
    <path class="cls-1" d="m835.11,83.62c-.34.17-.68.34-1.03.51v187.28c29.31-26.29,40.08-60.99,38.24-101.75-1.57-34.95-13.15-64.32-37.22-86.04Z"/>
    <path class="cls-1" d="m602.99,42.16c-6.37.19-12.76.29-19.13.02-2.85-.12-3.77.74-3.75,4.1.17,38.9.23,77.8.32,116.7,0,2.21,0,4.41,0,6.62l-1.01.45c-26.33-44.66-52.66-89.32-79.45-134.75v312.41h25.97v-214.35c1.18.58,1.73,1.26,2.18,2.02,16.91,28.57,33.84,57.13,50.64,85.78,1.07,1.82,1.63,4.42,1.63,6.65.03,35.55-.08,71.1-.15,106.65,0,4.38,0,8.77,0,13.29h25.65c.09-1.1.24-2.03.25-2.96.06-22.86.14-45.72.15-68.58.02-76.73,0-153.46.06-230.19,0-2.99-.79-3.96-3.36-3.88Z"/>
    <path class="cls-1" d="m411.28,43.66c-.62.01-1.51,1.31-1.78,2.21-2.34,8.04-4.53,16.13-6.82,24.18-11.69,41.17-23.39,82.33-35.1,123.48-.45,1.57-1.13,3.06-1.71,4.58-.65-.68-.78-1.12-.78-1.56.14-28.85.32-57.69.42-86.54.07-20.83,0-41.66.09-62.49.01-3.07-.69-4.35-3.49-4.05-2.65.29-5.34.06-8.02.06-4.9,0-9.8,0-14.71,0v304.41c7.79,0,15.38-.1,22.97.06,2.36.05,2.93-.87,2.92-3.51-.06-14.72-.03-29.44.13-44.17.03-2.93.44-5.98,1.21-8.77,3.73-13.53,7.64-27,11.51-40.48.4-1.4,1.01-2.72,1.81-4.83,18.23,31.14,25.79,65.17,26.56,101.55h26.08c-.75-9.91-1.12-19.49-2.27-28.93-2.86-23.35-8.71-45.68-17.85-66.78-5.58-12.88-12.29-24.89-20.49-35.72-2.12-2.8-2.58-5.28-1.49-9.01,6.29-21.49,12.23-43.11,18.39-64.65,8.67-30.38,17.43-60.72,26.14-91.08.72-2.52,1.36-5.08,2.16-8.08-9.06,0-17.48-.05-25.9.1Z"/>
    <path class="cls-1" d="m722.37,155.8c-14.09.09-28.18,0-42.27-.13-2.05-.02-2.07,1.26-2.07,2.95.02,8.26.09,16.52-.03,24.77-.04,2.49,1,2.69,2.65,2.68,5.24-.05,10.49.11,15.73-.06,2.19-.07,2.89.73,2.82,3.25-.09,3.1.27,6.21.27,9.32.03,34.59.04,69.18.05,103.77,0,1.85,0,3.69,0,6.33-1.61-1.1-2.69-1.69-3.62-2.5-17.13-14.86-29.23-34.08-36.45-57.44-8.96-28.98-9.46-58.61-3.87-88.36,6.05-32.21,20.52-58.22,44.75-75.99,6.99-5.12,14.73-8.87,22.2-13.06,1.73-.97,2.53-2.04,2.53-4.27.01-8.26.15-16.51.2-24.77,0-.64-.32-1.28-.48-1.91-.49.07-.81.07-1.1.17-1.57.54-3.15,1.08-4.71,1.68-38.15,14.66-65.93,42.89-81.36,86.26-11.58,32.53-14.77,66.41-8.98,101.25,8.89,53.45,33.56,92.69,76.51,115.46,6.21,3.29,12.77,5.68,19.76,8.75.13-2.34.25-3.52.25-4.69.04-54.1.07-108.2.11-162.3,0-9.22-.02-18.43.05-27.65.02-2.52-.55-3.53-2.97-3.52Z"/>
    <path class="cls-1" d="m478.96,45.46c-.03-1.07-1.06-3.01-1.65-3.02-8-.2-16-.14-24.37-.14v305.4h26.18v-19.21c0-87.64,0-175.27,0-262.91,0-6.7.02-13.41-.15-20.11Z"/>
    <path class="cls-1" d="m1162.45,42.16c-6.37.24-12.76.24-19.13.01-2.59-.09-3.42.78-3.41,3.77.14,38.78.21,77.56.29,116.35,0,2.44,0,4.88,0,7.31-.33.15-.67.29-1,.44-26.33-44.66-52.66-89.32-78.99-133.98-.19.11-.37.21-.56.32v311.31h25.95v-214.31c1.3.57,1.95,1.41,2.49,2.32,16.74,28.27,33.5,56.53,50.12,84.9,1.23,2.1,1.94,5.05,1.94,7.61.05,35.67-.06,71.34-.14,107.01,0,4.14,0,8.28,0,12.52h25.69c.09-1.11.23-2.04.23-2.97.05-27.05.12-54.1.13-81.15.02-72.42,0-144.84.07-217.27,0-3.38-.87-4.31-3.7-4.2Z"/>
    <path class="cls-1" d="m1041.38,187.2c-.11-29.4-2.16-58.55-8.8-87.04-3.63-15.56-8.59-30.49-17.63-43.05-18.93-26.31-50.86-25.79-69.25,1-7.04,10.26-11.67,21.95-14.87,34.39-7.85,30.5-10.42,61.92-10.99,93.55-.58,32.38,1.81,64.52,7.99,96.19,3.35,17.18,8.39,33.56,17.96,47.51,11.97,17.47,27.6,23.48,46.16,18.45,12.31-3.34,20.95-12.8,27.61-24.83,9.12-16.48,13.54-35.02,16.69-53.99,4.35-26.19,5.5-52.69,5.14-79.31,0-.96,0-1.92,0-2.87Zm-31.65,82.73c-1.94,10.2-4.93,20.18-7.96,30.04-1.96,6.39-5.79,11.51-10.6,15.51-8.06,6.72-16.67,5.8-23.59-2.48-7.1-8.5-10.83-18.99-13.43-30.21-4.69-20.2-6.27-40.89-7.42-61.67-1.38-24.9-.62-49.75,1.36-74.55,1.44-17.98,3.6-35.92,9.31-52.84,2.21-6.56,5.54-12.85,9.26-18.45,6.44-9.69,18.69-9.96,26.85-1.36,5.35,5.63,8.93,12.73,10.77,20.59,3.07,13.1,6.62,26.26,7.76,39.72,1.25,14.71,3.1,44.23,3.44,59.01.6,25.72-.97,51.46-5.76,76.69Z"/>
    <path class="cls-1" d="m811.27,38.16c-1.05-.36-2.17-.44-3.47-.7v310.31h25.6c.13-.91.27-1.49.28-2.07.07-10.53.52-21.09.04-31.59-.27-5.86,1.38-8.85,5.64-11.79,32.58-22.53,50.77-56.73,57.49-99.39,3.48-22.1,2.41-44.33-2.63-66.16-11.76-50.97-39.55-83.68-82.94-98.62Zm22.81,233.25V84.13c.34-.17.68-.34,1.03-.51,24.06,21.71,35.64,51.08,37.22,86.04,1.84,40.76-8.94,75.46-38.24,101.75Z"/>
    <path class="cls-1" d="m1281.7,155.76c-13.88.12-27.77.06-41.65-.09-2.23-.02-2.23,1.3-2.22,3.13.03,8.02.12,16.04-.03,24.06-.05,2.61.68,3.3,2.8,3.24,5.24-.14,10.49.07,15.73-.08,2.04-.06,2.72.7,2.66,3.06-.07,3.1.28,6.22.28,9.32.03,31.48.04,62.96.04,94.44,0,4.98,0,9.97,0,15.6-1.21-.65-2.06-.93-2.75-1.5-7.88-6.46-14.7-14.25-20.62-23.04-12.58-18.69-19.77-39.95-22.63-63.45-3.05-25.09-1.41-49.68,5.35-73.64,7.46-26.45,21.08-47.78,41.59-62.49,7.04-5.05,14.79-8.72,22.17-13.14.95-.57,2.22-1.86,2.24-2.84.17-9.18.1-18.38.1-28.18-2.16.75-4.02,1.34-5.84,2.04-38.29,14.65-66.11,42.96-81.57,86.46-11.57,32.55-14.73,66.45-8.88,101.26,9.67,57.54,37.3,97.82,84.58,119.2,3.69,1.67,7.53,2.88,11.65,4.43.11-1.89.26-3.17.26-4.46.05-43.45.08-86.89.11-130.34.02-19.63-.02-39.26.09-58.89.02-3.05-.7-4.13-3.47-4.1Z"/>
  </g>
</svg>