<svg id="Layer_1" data-name="Layer 1" xmlns="http://www.w3.org/2000/svg" viewBox="0 0 1788.08 598.17"><defs><style>.cls-1{fill:#f24404;}.cls-2{fill:#121212;}</style></defs><path class="cls-1" d="M403.38,275c-.78,10.52-2,21-2.25,31.48a896,896,0,0,0,3.2,97.07c1.1,13.38,3.8,26.7,4.06,40.08.26,13,5.07,24.73,7.5,37.1,1.59,8.07,7,14.11,12.16,20.17,14.3,16.74,15.55,36.21,11.51,56.69-.83,4.24-2.66,8.28-3.42,12.51-.4,2.2-.29,5.32,1,6.86C452,594.8,455,617.63,462.89,638.37c1.85,4.84,2.76,10,4.1,15l-1.52.78a35.44,35.44,0,0,0-3.7-2.46c-1.44-.73-3.49-2-4.4-1.54-1.16.65-1.82,2.83-2,4.43-.5,4-.71,8.07-.86,12.11-.75,20.31-8.53,37.32-22.72,51.84-9,9.26-17.22,19.42-25.6,29.32a71.35,71.35,0,0,0-6.86,10c-9,15.16-20.24,28.41-32.86,40.57-.89.85-1.92,1.55-3.15,2.54-1.64-3.48-3.08-6.51-5-10.51-5,9.79-7.07,20.11-15.76,26.36-8.23,5.92-17.44,9.68-27,13.48V816.7c-10,3.33-19.7,6.19-29.06,10-2.76,1.11-4.56,4.79-6.58,7.46-.91,1.19-1.27,2.8-2.23,5-1-1.45-1.93-2.21-2.15-3.13-1.71-7.15-7.05-10.21-13.37-12.11-6.87-2.07-13.78-4-21.13-6.11v13.34C222.45,821,205.94,810.32,199.61,789l-1.4.39L192,800.18a11.5,11.5,0,0,1-2.16-1.33C177.6,786.8,166.3,774,156.67,759.61c-7.18-10.76-14.92-21.48-24.07-30.53-15.7-15.52-23.49-34.16-26.62-55.48-1.16-8-3-15.83-4.68-24.19-5-.25-8.43,3.2-12.84,6.69.12-2.69-.1-4.78.35-6.71,4.22-18.42,8-37,16.54-54.07,2.65-5.26,6.33-10,9-15.25,1.37-2.67,2.44-6,2.13-8.9-.74-6.86-2.45-13.61-3.65-20.43-2.76-15.6,2.05-28.75,13-39.87.4-.4.76-.83,0-1-2.57-8.78-5.33-17.52-7.67-26.36C112,460,105.47,436.72,94.11,415.06c-10.38-19.79-20.44-39.76-30.5-59.73-1.63-3.24-3.41-4.43-7.24-4.06-9.51.91-17.16-6.25-17.45-15.65A16.4,16.4,0,0,1,55.75,319c6.36.16,10.76,3.67,13.78,9,3.39,6,2.45,11.89-1.71,17-2.34,2.87-1.92,4.27.55,6.64,16.39,15.84,32.42,32.1,51.22,45.16a157.06,157.06,0,0,0,17.76,10.64c15.76,8.09,32.3,7.5,48.72,2.8,13.85-4,23.24-13.83,27.44-27.29,4.89-15.65,8.14-31.83,11.91-47.83.22-.95-1.17-2.52-2.13-3.48-1.92-1.9-4.49-3.25-6-5.38-5.24-7.23-4.14-15.6,2.43-21.38,6.19-5.44,15.87-5.48,21.72-.08a15.77,15.77,0,0,1,1.72,21.89c-3.1,3.77-2.75,6.48.38,9.68,10.29,10.51,20.24,21.36,30.83,31.55a64.65,64.65,0,0,0,29.34,15.86c13.54,3.44,26,1.72,37.67-6.71,14.16-10.24,23.56-24.24,30.78-39.56,6.67-14.17,11.58-29.17,17.25-43.82,2.13-5.51,4-11.12,6.35-16.55,1.19-2.78.8-4.54-1.16-6.9-4-4.78-6.79-10.28-3.83-16.72,2.82-6.13,7.29-10.37,14.4-10.89a16.27,16.27,0,0,1,17.34,16.4,15.94,15.94,0,0,1-16.84,15.8C405.08,274.83,404.51,274.91,403.38,275ZM366.94,753.31c1.17,2.14,1.55,2.9,2,3.62,5.08,8.37,8.76,9,16,2.62,9.18-8,14.9-18.37,19.12-29.49,3-8,4.77-16.4,7.13-24.76,2.53,1.76,5,4.16,8,5.33,2,.78,6,.76,6.87-.49,6.79-9.34,13.29-19.06,15.21-30.73a271.74,271.74,0,0,0,3.16-29.72c.54-10.05,2.36-20.53-1.77-30.05-5.88-13.58-10.42-27.95-20.28-39.49-2.83-3.32-3.08-6.86-1.78-10.91,2.82-8.78,5.28-17.68,8.14-26.46,4.57-14,1.65-25.9-9.75-35.44a35.26,35.26,0,0,1-11.1-17.21c-1.64-5.38-3.07-10.82-4.62-16.22q-2.68-9.35-5.42-18.68c-1.46-5-4.08-7.23-10-7.22-31.24.06-62.47-.05-93.57,3.51-24.22,2.77-48.11,7.57-71,15.87-25,9.07-49.39,19.68-74,29.72a14.11,14.11,0,0,0-5.21,3.67c-4.33,5-8.39,10.27-12.54,15.45-9.22,11.51-10.17,24.39-6.23,38.07,1.4,4.85,2.57,9.78,4.18,14.55,1.15,3.38.51,6-1.57,8.81-9.27,12.7-13.68,27.31-14.92,42.76-.75,9.32-.32,18.77,0,28.14.78,19.93,4,39.32,13.49,57.23,3.45,6.55,4.2,7,11,3.84a55.84,55.84,0,0,0,6.17-3.93l3.22-2.07a8.44,8.44,0,0,1,.59,1.64c1.47,19.43,10,35.76,22.88,49.73,9.26,10.07,8,9.61,16.85.4.09-.1.27-.1,1-.36,5,6.32,10.15,12.87,15.39,19.32,4.46,5.47,8.84,11,13.64,16.18a33.36,33.36,0,0,0,24.19,10.81c6,.19,12.09.16,18.12.56,9.31.63,14.69,5.51,16.73,14.66a32.31,32.31,0,0,0,1.15,3.23c.92-1.42,1.45-2.2,1.94-3,5.88-9.66,13.63-15.86,25.71-14.91,4.43.36,8.92-.18,13.38-.14a25.39,25.39,0,0,0,19.6-8.44c3.74-4,8.15-7.42,11.58-11.65,3.59-4.41,6.48-9.41,9.46-14.29C361.68,763.12,364,758.69,366.94,753.31ZM117.76,420.2c-.09.63-.24,1-.14,1.16q12.48,26.16,25,52.31c1,2,2.17,2,4.16,1.23C169,466.49,191.11,458,213.41,450c27.68-10,56-17.42,85.49-19.58q37.25-2.75,74.52-5c3.86-.24,5.11-1.22,5.05-5.28-.26-16.48-.12-33-.16-49.46a36.31,36.31,0,0,0-.45-4.14c-.83.23-1.21.22-1.35.39-.63.78-1.21,1.6-1.77,2.44-11.86,17.91-28.33,29.78-48.49,36.43-12,4-24.22,6.59-36.53.56-9.26-4.54-18-9.8-24.9-17.6q-9.61-10.85-19-21.92c-3.3-3.9-3.79-4-5.91.81-2.2,5-4.23,10.12-6,15.31-12.72,38.1-58.83,58.89-91.39,46.62C134.4,426.41,126.21,423.36,117.76,420.2Z" transform="translate(-38.92 -241)"/><path class="cls-1" d="M151.27,295.31c9,17.83,18.78,34.87,33.46,48.29,6.21,5.68,13.43,10.28,20.4,15,2,1.38,2.64,2.38,2.08,4.77-4.67,20.1-20.13,34-40.56,36.35-7.36.85-13.82-2.11-20.34-4.69-.58-.23-.81-2.92-.33-4.09,3.3-8,7.65-15.59,10.09-23.79,3.79-12.75,1.46-25.84-.38-38.7-1.25-8.69-3.13-17.3-4.79-25.93-.75-4-1.63-6.84-7.26-6.46-7.35.51-13.37-5.79-14.63-13.34a16.44,16.44,0,0,1,9.93-17.89c6.42-2.83,14.21-.54,18.8,5.53C164.24,279,162,288,151.27,295.31Z" transform="translate(-38.92 -241)"/><path class="cls-1" d="M343.35,363.08c-9.31,6-17.89,12.29-29.33,12-7.6-.21-14-3.56-19.75-7.81-7.84-5.81-15-12.57-22.45-18.89-2-1.72-2.12-3.27-.51-5.52a94.45,94.45,0,0,0,18.06-53.28,63.76,63.76,0,0,1,1.21-10.75c.66-3.29,0-4.86-3.52-5.88-8.32-2.37-12.57-8.21-12.49-16.05a15.82,15.82,0,0,1,13.36-15.7,16.45,16.45,0,0,1,18.35,11.09c2.42,7.36-.82,15.77-8.08,18.94-4,1.74-4.61,3.73-3.59,7.58,4,15.17,7.11,30.62,11.81,45.57,5.64,18,16.93,31.32,35.39,37.46C342.17,362,342.45,362.34,343.35,363.08Z" transform="translate(-38.92 -241)"/><path class="cls-1" d="M186.08,606.65c-19-4.38-32-15.09-37.29-33.83-5.21-18.52,1.51-34.14,12.65-49.12l-7.83-.5c4.14-3.86,7.19-7.23,10.75-9.9,10-7.52,21.45-11.51,33.71-13.49,1.66-.27,3.18-1.4,4.77-2.13-1-1.52-1.68-3.29-2.93-4.51-1.92-1.87-4.2-3.35-6.16-5.45,19.62-.34,38.37,4.12,56.85,10.22l.44-1q-2-3.69-4-7.39l.87-.74c3.74,1.72,7.42,3.56,11.24,5.07,1.5.6,3.29.47,4.95.68.2-1.78.73-3.59.51-5.31a64.73,64.73,0,0,0-1.79-7.43l1.22-.67,14.15,25.32c1.94-5.31,3.39-9.77,5.21-14.08,1.75-4.13,3.77-8.18,8.26-11.23-1.09,4.91-2,9-3.2,14.52l17.66-6.89.79,1.17a40.51,40.51,0,0,0-2.61,3.41,23.77,23.77,0,0,0-1.43,3.31c1.16.21,2.43.84,3.47.57,6.65-1.79,13.22-3.9,19.89-5.64a102.33,102.33,0,0,1,13.92-2.87,121.09,121.09,0,0,1,20.9-.68c-1.83,1.68-3.76,3.28-5.47,5.08s-3.14,3.72-4.32,5.14c9.21,2.69,18.09,4.51,26.31,7.93,6.25,2.59,11.71,7.16,17.42,11a3.63,3.63,0,0,1,1.34,2.86c-.94,6.52,2.34,11.66,5,17.11,6.54,13.33,8.19,27.17,2,41-5.78,12.89-15.07,22.37-29.11,26.29-.83.23-1.67.44-2.49.7-4.28,1.35-4.47,2-2.46,6.12,4.71,9.56,9.76,19,13.88,28.8,10.89,26,5.38,50-9.32,72.75a24.63,24.63,0,0,1-5.88,6.47c18.07-42.54,13-81.67-17-118l6.46-.62c27.53-2.68,43.08-20.82,40.44-50.27-1-10.71-7.58-19.71-16.36-26.6-1.31-1-2.48-3.87-2-5.26,1.19-3.38-.24-4.79-2.76-6.2-7-3.91-14.71-4.79-22.5-5.17-3.45-.17-6.92-.35-10.36-.2s-3.94-1.56-3.42-4.33c.48-2.49,1-5,1.59-8.38-6.89,2.14-13.13,3.65-19,6-9.58,3.84-18.94,8.24-28.4,12.4-1.18.52-2.44,1.52-3.55,1.39a16.07,16.07,0,0,0-13.06,4.18c-.6.52-2.81-.73-4.21-1.32-2.25-.94-4.37-2.24-6.67-3-3.8-1.25-7.78-2-11.54-3.31-11.76-4.19-23.42-8.67-35.21-12.79-2.9-1-6.13-1.05-9.81-1.63l4.23,10.55c-3,.13-5.39.34-7.74.32-10-.05-19.8,1-29.11,5-5.77,2.52-5.8,2.46-1.65,7.38a11,11,0,0,1,.89,1.65c-1.83,1.43-3.71,2.88-5.57,4.37-12.63,10.13-17.44,23.62-15.15,39.26,2.25,15.41,10,27.54,25.44,32.63,7,2.3,14.56,2.85,22.11,4.23a14.87,14.87,0,0,1-1.71,2.16c-15.42,14.12-22.75,32-23.66,52.61a283.11,283.11,0,0,0,.07,32.44c.5,7,3,13.77,4.56,20.66a41.77,41.77,0,0,1,.51,4.48l-1.15.73a23.13,23.13,0,0,1-3.55-3.51c-7.86-12.15-12.12-25.19-11.9-40,.24-15.89.42-31.5,9.14-45.62,2.88-4.65,5.15-9.68,7.67-14.54C184.6,609.93,185,608.88,186.08,606.65Z" transform="translate(-38.92 -241)"/><path class="cls-1" d="M348.54,731.81c-1.35-4.3-2.5-7.47-3.32-10.73-1.55-6.11-5.49-9.84-11.4-11.14-9.94-2.2-19.9-4.63-30-5.85a215.76,215.76,0,0,0-63.62,1.57,158.86,158.86,0,0,0-19.54,5.17c-7.44,2.33-11.51,7.74-12.67,15.44-.23,1.48-.73,2.92-1.28,5-3.55-3.91-4.57-7.71-3.38-12,2.68-9.76,8.17-17,18-20.54,13-4.7,26.49-6.76,40.1-7.65a227.24,227.24,0,0,1,66.79,5.85c10.64,2.48,18.88,8.05,22.34,18.79,1.21,3.76.73,8.13.7,12.22C351.27,728.89,350,729.85,348.54,731.81Z" transform="translate(-38.92 -241)"/><path class="cls-1" d="M236.7,654c-2.06-2.36-4.69-4.43-6.08-7.14-11.57-22.38,7.37-41.08,24.06-42.79,6-.61,11.81-.22,16.94,3.5,4.77,3.46,9.63,2.93,14.65.5,4.78-2.32,9.54-4.27,15.19-4.14,19.16.47,32.61,15.71,30,34.82a23.14,23.14,0,0,1-7.24,14l-1.46-.49a40.52,40.52,0,0,1,1.27-5.3c3.07-8,3.88-15.78-.14-23.86-4.53-9.12-12.25-13-21.61-13.37-8.76-.29-16.82,2.36-21.77,10.66a27.64,27.64,0,0,1-1.79,2.4c-11.36-13.2-18.92-16.22-30.42-11.43-8.22,3.43-14.23,9.66-16.56,18.31s3.74,15.76,6.45,23.46Z" transform="translate(-38.92 -241)"/><path class="cls-1" d="M188.58,553.88c.12-.19.37-1.06.87-1.26,13.54-5.28,27.31-10.15,41.82-4.69,5.77,2.17,11.15,5.91,16,9.82,4.1,3.3,2.69,7.07-2.54,8.16-13.6,2.84-26.77,2.62-39.3-4.65C200.3,558.29,194.53,556.44,188.58,553.88Z" transform="translate(-38.92 -241)"/><path class="cls-1" d="M364.54,553c-8.92,4.1-17.09,8.51-25.73,11.64-9.52,3.45-19.59,2.42-29.4.75a8.45,8.45,0,0,1-5.34-4.29c-.49-1.06,1.49-3.84,3-5.14a41.28,41.28,0,0,1,35.15-10.24c6.44,1,12.65,3.52,18.94,5.46A18.64,18.64,0,0,1,364.54,553Z" transform="translate(-38.92 -241)"/><path class="cls-1" d="M373.12,538.4c-3.63-.55-7.27-1.07-10.89-1.66-7.51-1.22-15-3-22.53-3.61-13.62-1.12-23.91,5.75-32.95,15.13-3,3.15-6.28,6.11-9.43,9.15l-1.7-.91c.83-2.83,1-6.19,2.62-8.39,8.93-11.85,20.4-19.84,35.53-21.3a66.61,66.61,0,0,1,30.53,4c3.43,1.31,6.49,3.58,9.72,5.42Z" transform="translate(-38.92 -241)"/><path class="cls-1" d="M181.63,536.8c1.31-1.08,2.46-2.48,4-3.2,13-6.3,27-8.79,41.09-6.3,6,1.06,11.81,5.08,17,8.73,4.66,3.25,8.43,7.82,12.54,11.86.8.79,1.81,1.82,1.89,2.81a35.44,35.44,0,0,1-.46,6c-1.54-.7-3.38-1.07-4.57-2.16-5.18-4.77-9.92-10-15.27-14.59-7.85-6.66-17.22-8.39-27.17-6.66-7.07,1.23-14,3-21.09,4.33-2.35.46-4.77.53-7.16.78Z" transform="translate(-38.92 -241)"/><path class="cls-1" d="M301.45,643.57c-4.31-1.46-8.7-2.72-12.91-4.44-2.77-1.14-3.73-3.73-2.51-6.51a17.62,17.62,0,0,1,14.68-10.77c5.42-.56,9.59,3.42,12.27,8.22,3.37,6,1,10.88-5.71,12.15-1.84.34-3.71.47-5.57.7Z" transform="translate(-38.92 -241)"/><path class="cls-1" d="M253.32,642.63l-.43,0c-4.53-.31-9.84-.56-11.24-5.48-1.35-4.73,2.19-8.8,5.7-11.85,7.23-6.27,21.08-1.29,22.7,8.29.3,1.77-1.45,5.05-3.09,5.78-4.22,1.92-8.91,2.8-13.41,4.1Z" transform="translate(-38.92 -241)"/><path class="cls-2" d="M783.16,358.92c35.61,51.67,70.62,102.44,105.62,153.22l1.35-.51V504.1q-.18-66.35-.43-132.69c0-3.83,1.2-4.8,5-4.67,8.47.31,17,.21,25.43,0,3.41-.09,4.47,1,4.47,4.41q-.12,130.86-.09,261.73,0,39-.2,78c0,1-.2,2.11-.32,3.36h-34.1c0-5.15,0-10.14,0-15.12.09-40.42.23-80.84.2-121.26a14.11,14.11,0,0,0-2.17-7.57q-33.51-48.87-67.32-97.53a6,6,0,0,0-2.9-2.3V714.14H783.16Z" transform="translate(-38.92 -241)"/><path class="cls-2" d="M693.61,714.26H658.94c-1-41.37-11.08-80.06-35.31-115.46-1.06,2.39-1.87,3.89-2.41,5.49-5.15,15.33-10.34,30.64-15.3,46a34.38,34.38,0,0,0-1.62,10q-.31,25.1-.17,50.21c0,3-.75,4-3.89,4-10.09-.18-20.19-.07-30.54-.07V368.31h19.55c3.56,0,7.14.25,10.67-.07,3.71-.34,4.65,1.11,4.63,4.6-.13,23.68,0,47.37-.12,71.05-.13,32.8-.38,65.6-.56,98.4,0,.49.17,1,1,1.77.77-1.74,1.68-3.42,2.27-5.21q23.37-70.19,46.67-140.4c3-9.16,6-18.36,9.07-27.5.34-1,1.54-2.5,2.36-2.51,11.19-.17,22.38-.11,34.43-.11-1.06,3.41-1.91,6.32-2.87,9.18q-17.37,51.78-34.75,103.56c-8.18,24.5-16.08,49.08-24.44,73.51-1.45,4.24-.85,7.06,2,10.24a191.11,191.11,0,0,1,27.24,40.61,242.79,242.79,0,0,1,23.73,75.94C692.13,692.11,692.61,703,693.61,714.26Z" transform="translate(-38.92 -241)"/><path class="cls-2" d="M1082.22,721.25c-9.3-3.49-18-6.21-26.27-10-57.11-25.9-89.9-70.51-101.72-131.28-7.7-39.62-3.45-78.13,11.94-115.12,20.52-49.31,57.44-81.4,108.16-98.08,2.07-.68,4.17-1.28,6.26-1.9a9.16,9.16,0,0,1,1.46-.2,7.77,7.77,0,0,1,.64,2.17c-.06,9.39-.24,18.78-.26,28.17,0,2.53-1.07,3.76-3.36,4.86-9.94,4.76-20.23,9-29.52,14.85-32.21,20.2-51.45,49.77-59.5,86.39-7.42,33.82-6.76,67.52,5.15,100.47a138.11,138.11,0,0,0,48.45,65.3c1.24.92,2.67,1.59,4.81,2.84v-7.19q0-59-.06-118c0-3.53-.48-7.08-.37-10.6.1-2.87-.84-3.77-3.75-3.69-7,.19-13.94,0-20.91.07-2.19,0-3.58-.22-3.53-3,.16-9.38.07-18.78,0-28.17,0-1.92,0-3.38,2.75-3.36,18.73.16,37.46.26,56.19.15,3.22,0,4,1.14,4,4-.1,10.48-.06,21-.07,31.44q-.08,92.26-.15,184.53C1082.55,717.25,1082.39,718.58,1082.22,721.25Z" transform="translate(-38.92 -241)"/><path class="cls-2" d="M720.65,366.89c11.12,0,21.76-.08,32.4.15.79,0,2.15,2.22,2.19,3.44.24,7.62.2,15.24.21,22.87V714.13h-34.8Z" transform="translate(-38.92 -241)"/><path class="cls-2" d="M1528,359.81l105,152.33,1.33-.5c0-2.78,0-5.55,0-8.32q-.16-66.15-.39-132.29c0-3.4,1.09-4.39,4.53-4.29q12.71.39,25.43,0c3.75-.12,4.92.93,4.92,4.78q-.16,123.51-.1,247,0,46.14-.17,92.28c0,1-.19,2.11-.31,3.37h-34.15c0-4.82,0-9.52,0-14.23.1-40.56.25-81.12.18-121.68a16.11,16.11,0,0,0-2.58-8.65q-33.14-48.39-66.62-96.53a6.54,6.54,0,0,0-3.32-2.64V714.13h-34.5v-354Z" transform="translate(-38.92 -241)"/><path class="cls-2" d="M1502.91,534.91c.49,30.26-1.05,60.4-6.83,90.17-4.19,21.57-10.07,42.65-22.19,61.39-8.85,13.68-20.34,24.44-36.7,28.23-24.67,5.72-45.45-1.11-61.36-21-12.72-15.87-19.42-34.48-23.88-54-8.21-36-11.39-72.56-10.62-109.38.76-36,4.18-71.69,14.62-106.36,4.25-14.15,10.41-27.44,19.77-39.11,24.44-30.45,66.89-31.05,92-1.13,12,14.28,18.61,31.26,23.44,48.95,8.83,32.39,11.55,65.53,11.7,99Zm-39-63.49c-1.53-15.31-6.24-30.27-10.33-45.17a48.5,48.5,0,0,0-14.31-23.41c-10.85-9.78-27.14-9.47-35.7,1.55a86.87,86.87,0,0,0-12.31,21c-7.58,19.23-10.46,39.63-12.37,60.08-2.63,28.19-3.64,56.45-1.8,84.76,1.53,23.63,3.63,47.15,9.86,70.12,3.46,12.76,8.41,24.68,17.85,34.35,9.2,9.42,20.64,10.46,31.36,2.82,6.39-4.56,11.48-10.37,14.09-17.64,4-11.21,8-22.56,10.58-34.16,6.36-28.68,8.44-58,7.65-87.19C1468,521.7,1465.57,488.15,1463.91,471.42Z" transform="translate(-38.92 -241)"/><path class="cls-2" d="M1226.42,714.22h-34V361.39a41.43,41.43,0,0,1,4.61.79c57.69,17,94.63,54.18,110.27,112.13,6.69,24.83,8.12,50.1,3.49,75.23-8.94,48.5-33.12,87.38-76.42,113-5.66,3.34-7.86,6.74-7.5,13.4.64,11.94.05,23.94,0,35.92A17.08,17.08,0,0,1,1226.42,714.22Zm2.27-300.35-1.36.59V627.39c39-29.89,53.28-69.35,50.84-115.69C1276.08,472,1260.68,438.56,1228.69,413.87Z" transform="translate(-38.92 -241)"/><path class="cls-2" d="M1826.49,364.44c0,11.16.09,21.61-.14,32.05,0,1.12-1.71,2.58-3,3.23-9.8,5-20.11,9.2-29.47,14.94-27.26,16.72-45.36,41-55.29,71a182.11,182.11,0,0,0-7.11,83.73c3.8,26.72,13.36,50.9,30.08,72.15a129.55,129.55,0,0,0,27.41,26.2,27.13,27.13,0,0,0,3.65,1.7c0-6.4,0-12.07,0-17.73q0-53.68-.06-107.38c0-3.53-.46-7.07-.37-10.6.07-2.69-.83-3.54-3.54-3.48-7,.17-14-.06-20.91.09-2.83.06-3.79-.71-3.73-3.68.2-9.12.08-18.24,0-27.36,0-2.08,0-3.58,3-3.56,18.46.17,36.92.24,55.37.1,3.68,0,4.63,1.2,4.61,4.67-.14,22.31-.1,44.63-.12,66.95q-.06,74.1-.15,148.2c0,1.47-.19,2.93-.34,5.07-5.47-1.76-10.58-3.14-15.48-5-62.85-24.31-99.58-70.12-112.44-135.54-7.78-39.57-3.57-78.12,11.81-115.13,20.55-49.47,57.54-81.66,108.44-98.31C1821.15,366,1823.62,365.3,1826.49,364.44Z" transform="translate(-38.92 -241)"/></svg>